<svg width="115" height="132" viewBox="0 0 115 132" version="1.1" xmlns="http://www.w3.org/2000/svg" xmlns:xlink="http://www.w3.org/1999/xlink" fill="#212121">
<title>innlab</title>
<desc>Created using Figma</desc>
<g id="Canvas" transform="translate(-69 -773)">
<g id="innlab">
<g id="Vector">
<use xlink:href="#path0_fill" transform="translate(73.0379 860.888)"/>
</g>
<g id="bubbles">
<g id="Vector">
<use xlink:href="#path1_fill" transform="translate(127 839)"/>
</g>
<g id="Vector">
<use xlink:href="#path2_fill" transform="translate(117 816)"/>
</g>
</g>
<g id="Vector">
<use xlink:href="#path3_fill" transform="translate(69.9878 773.5)"/>
<use xlink:href="#path4_fill" transform="translate(69.9878 773.5)"/>
</g>
<g id="Vector (Stroke)">
<use xlink:href="#path5_fill" transform="translate(139.145 782.032)"/>
</g>
</g>
</g>
<defs>
<path id="path0_fill" d="M 79.6097 23.0921C 65.5251 43.1693 37.8747 47.9607 17.8761 33.8208C 6.33349 25.6441 1.61269 14.8633 0.31577 8.45739C -0.618015 3.77011 0.134198 7.49389 7.91574 6.19187C 8.66796 6.06167 15.1007 6.42623 15.6195 6.50436C 20.859 7.28557 22.3635 6.71268 26.0727 6.89496C 33.5948 7.25953 34.9955 -5.91694 47.9388 3.2493C 51.4146 5.6971 57.1729 2.52016 60.7265 4.62944C 77.7421 14.7852 91.2561 6.47832 79.6097 23.0921Z"/>
<path id="path1_fill" d="M 11 22C 17.0751 22 22 17.0751 22 11C 22 4.92487 17.0751 0 11 0C 4.92488 0 -3.05176e-06 4.92487 -3.05176e-06 11C -3.05176e-06 17.0751 4.92488 22 11 22Z"/>
<path id="path2_fill" d="M 7.00001 14C 10.866 14 14 10.866 14 7.00002C 14 3.13402 10.866 -8.06125e-06 7.00001 -8.06125e-06C 3.13401 -8.06125e-06 4.03062e-06 3.13402 4.03062e-06 7.00002C 4.03062e-06 10.866 3.13401 14 7.00001 14Z"/>
<path id="path3_fill" fill-rule="evenodd" d="M 85.5995 0.744148C 86.9057 1.64926 88.2027 2.57001 89.4969 3.48879C 90.0313 3.86813 90.5651 4.24714 91.099 4.62457C 93.9396 6.62994 96.7801 8.6417 99.6194 10.6527L 99.6216 10.6543C 102.462 12.666 105.301 14.6769 108.141 16.6813L 108.145 16.6847C 108.542 16.9672 108.994 17.2675 109.471 17.584C 110.499 18.2665 111.641 19.0246 112.586 19.8429C 113.286 20.4438 113.536 21.2381 113.51 21.9835C 113.487 22.6548 113.246 23.2746 113.018 23.7442C 112.781 24.2314 112.488 24.6949 112.248 25.0643C 112.183 25.1643 112.123 25.2546 112.07 25.3368C 111.901 25.594 111.784 25.7715 111.704 25.9187L 111.699 25.9266C 110.022 28.945 108.333 31.9577 106.647 34.9637C 105.586 36.8555 104.527 38.7445 103.473 40.6307C 103.451 40.6838 103.423 40.746 103.387 40.8137C 103.3 40.9829 103.137 41.2501 102.866 41.4923C 102.578 41.7493 102.142 41.9961 101.574 42.0154C 101.02 42.0343 100.535 41.8303 100.146 41.562L 100.141 41.5583C 98.867 40.6709 97.5675 39.7577 96.2711 38.8466C 91.733 35.6574 87.1883 32.4747 82.6424 29.2911C 78.1028 26.1119 73.5619 22.9319 69.0274 19.7453C 67.7897 18.9187 67.7059 17.3196 68.5779 16.3053C 72.6249 11.5652 76.6976 6.82541 80.7685 2.08773L 80.77 2.08607L 80.7722 2.08345C 80.85 1.9933 80.9084 1.91396 80.9922 1.79993C 81.0566 1.71231 81.1361 1.6042 81.2511 1.45496C 81.4503 1.19629 81.7656 0.806579 82.1816 0.511729L 82.1928 0.50381C 82.8402 0.0538326 83.5672 -0.111965 84.3099 0.0766831C 84.8711 0.219244 85.3335 0.55242 85.5726 0.724728C 85.5819 0.731453 85.5909 0.737933 85.5995 0.744148ZM 71.3329 17.6988C 75.672 20.7471 80.0169 23.7899 84.3629 26.8335L 84.3648 26.8349C 88.9099 30.0178 93.4561 33.2016 97.996 36.3921C 99.0582 37.1385 100.118 37.8836 101.164 38.614C 102.12 36.904 103.077 35.1961 104.035 33.488C 105.717 30.4882 107.4 27.4877 109.075 24.4734C 109.219 24.2109 109.427 23.895 109.608 23.6193C 109.652 23.5525 109.694 23.4882 109.734 23.4275C 109.966 23.071 110.17 22.7403 110.32 22.4333C 110.416 22.2341 110.466 22.0915 110.491 21.9984C 109.723 21.3508 108.917 20.8183 108.042 20.2398C 107.524 19.8972 106.981 19.5386 106.408 19.1304C 103.567 17.1251 100.727 15.1134 97.8877 13.1024C 95.0473 11.0907 92.208 9.07972 89.3688 7.07538L 89.368 7.07478C 88.8233 6.68973 88.2832 6.30627 87.7454 5.92447C 86.4537 5.0075 85.1755 4.10007 83.8807 3.20292L 83.8707 3.19601L 83.8608 3.18893C 83.8245 3.16287 83.792 3.1397 83.762 3.11857C 83.7221 3.16542 83.6779 3.22054 83.6277 3.28568C 83.57 3.36059 83.518 3.43075 83.4587 3.51084C 83.4307 3.54863 83.401 3.58862 83.3684 3.63236C 83.2776 3.75403 83.1653 3.90214 83.0443 4.04246C 79.1316 8.59597 75.2206 13.1475 71.3329 17.6988Z"/>
<path id="path4_fill" fill-rule="evenodd" d="M 32.5782 44.558C 31.6346 45.0212 30.7972 45.4323 30.0677 45.8045L 30.0122 45.8403L 29.9622 45.8657C 29.4942 46.0636 29.0544 46.2599 28.5906 46.4804L 28.5784 46.4862L 28.5661 46.4919C 23.0539 49.023 18.1025 52.7994 14.1653 57.4481L 14.1618 57.4522C 10.0765 62.2497 7.07684 67.972 5.44077 74.0671C 3.95479 79.6882 3.63268 85.6367 4.49987 91.3826C 5.36781 97.1335 7.40118 102.682 10.4713 107.604C 13.7866 112.919 18.3192 117.471 23.5965 120.855C 28.7701 124.16 34.6627 126.323 40.7233 127.143C 46.4161 127.888 52.2856 127.465 57.8303 125.9C 63.5007 124.284 68.798 121.499 73.3256 117.724L 73.3308 117.72C 78.2786 113.622 82.2678 108.35 84.8936 102.481C 87.0785 97.5751 88.3396 92.2528 88.5799 86.8809L 88.5737 86.8801C 88.5769 86.8536 88.5802 86.8269 88.5835 86.8001C 88.5845 86.7761 88.5855 86.752 88.5865 86.7281L 88.5922 86.7283C 88.6751 86.0437 88.7598 85.2873 88.8527 84.4576C 89.7439 76.4988 91.3907 61.7925 99.4638 39.0375L 103.259 40.3677C 95.3387 62.6925 93.7328 77.0351 92.8488 84.9305C 92.7595 85.7283 92.6775 86.4603 92.5972 87.128C 92.3268 92.9764 90.9506 98.7638 88.5721 104.103L 88.5708 104.106C 85.6981 110.527 81.336 116.295 75.9096 120.79C 70.9452 124.929 65.1431 127.977 58.936 129.746L 58.9313 129.747C 52.8568 131.462 46.4328 131.925 40.1951 131.108L 40.1867 131.107C 33.5395 130.208 27.0875 127.84 21.4205 124.22L 21.4179 124.218C 15.6465 120.518 10.6865 115.54 7.05089 109.711C 3.68827 104.321 1.46775 98.2557 0.520005 91.976C -0.428324 85.6924 -0.0763308 79.1948 1.54951 73.0467L 1.55136 73.0397C 3.33917 66.3771 6.61578 60.1227 11.0886 54.8698C 15.3967 49.7838 20.8155 45.6469 26.8661 42.8663C 27.3311 42.6453 27.7743 42.4463 28.2322 42.2507L 28.2298 42.246C 28.9711 41.8677 29.8167 41.4526 30.7655 40.9867C 37.8756 37.4958 50.7794 31.1603 69.032 16.1821L 71.5942 19.2667C 52.9782 34.543 39.7284 41.0477 32.5782 44.558Z"/>
<path id="path5_fill" fill-rule="evenodd" d="M 8.67983 3.09078L 8.73742 3.11232C 8.71827 3.10557 8.69907 3.09839 8.67983 3.09078ZM 16.5164 6.02261L 41.3547 15.4681L 42.8547 12.9681L 9.86881 0.11642C 9.30636 -0.109653 8.77642 0.0325519 8.45704 0.212831C 8.16713 0.37648 8.00004 0.587119 7.93102 0.681193C 7.77904 0.888358 7.70144 1.0916 7.66249 1.21321C 7.61972 1.34678 7.5769 1.52939 7.57084 1.74166C 7.5678 1.8481 7.57235 2.01232 7.61934 2.20365C 7.66412 2.38597 7.77448 2.70177 8.0627 2.98596L 8.10201 3.02472L 25.5075 17.9743L 3.24497 7.77142L 2.35474 7.46814L 1.78081 7.66195L 0 9.80804L 33.9651 25.3741C 34.3316 25.5439 34.7423 25.5705 35.1199 25.4594C 35.4698 25.3564 35.7036 25.1629 35.834 25.0297C 36.0839 24.7745 36.1947 24.4986 36.2446 24.3386C 36.3011 24.1575 36.3393 23.9321 36.32 23.6803C 36.3025 23.4517 36.2193 23.0001 35.8282 22.6144L 35.7889 22.5757L 16.5164 6.02261Z"/>
</defs>
</svg>
