<svg xmlns="http://www.w3.org/2000/svg" xmlns:xlink="http://www.w3.org/1999/xlink" viewBox="0 0 24 24" version="1.1">
	<path fill="#2F4050" d="M 21.199219 2 L 17.800781 2 L 17 12 L 14 12 L 14 9 L 8 12 L 8 9 L 2 12 L 2 22 L 22 22 Z M 6 16 L 4 16 L 4 14 L 6 14 Z M 10 16 L 8 16 L 8 14 L 10 14 Z M 12 14 L 14 14 L 14 16 L 12 16 Z M 6 20 L 4 20 L 4 18 L 6 18 Z M 10 20 L 8 20 L 8 18 L 10 18 Z M 12 18 L 14 18 L 14 20 L 12 20 Z M 16 14 L 18 14 L 18 16 L 16 16 Z M 16 18 L 18 18 L 18 20 L 16 20 Z "></path>
</svg>