<?xml version="1.0" encoding="UTF-8"?>
<!DOCTYPE svg PUBLIC "-//W3C//DTD SVG 1.1//EN" "http://www.w3.org/Graphics/SVG/1.1/DTD/svg11.dtd">
<!-- Creator: CorelDRAW -->
<svg xmlns="http://www.w3.org/2000/svg" xml:space="preserve" width="21.519mm" height="20.32mm" version="1.1" style="shape-rendering:geometricPrecision; text-rendering:geometricPrecision; image-rendering:optimizeQuality; fill-rule:evenodd; clip-rule:evenodd"
viewBox="0 0 721.85 681.63"
 xmlns:xlink="http://www.w3.org/1999/xlink"
 xmlns:xodm="http://www.corel.com/coreldraw/odm/2003">
 <defs>
  <style type="text/css">
   <![CDATA[
    .fil0 {fill:black}
   ]]>
  </style>
 </defs>
 <g id="Layer_x0020_1">
  <metadata id="CorelCorpID_0Corel-Layer"/>
  <path class="fil0" d="M537.52 609.96l-59.73 0 0 -23.89 59.73 0c6.59,0 11.94,-5.35 11.94,-11.94l-0 -180.61 23.89 0 0 180.62c0,19.78 -16.05,35.83 -35.83,35.83zm-25.99 -609.96l210.33 364.27 -420.64 0 210.31 -364.27zm159.12 334.68l-159.12 -275.6 -159.1 275.6 318.22 0zm-173.9 -201.39c0,-8.15 6.63,-14.79 14.78,-14.79 8.17,0 14.8,6.62 14.8,14.79l0 128.5c0,8.16 -6.63,14.8 -14.8,14.8 -8.17,0 -14.78,-6.63 -14.78,-14.8l0 -128.5zm33.6 164.63c0,10.39 -8.42,18.81 -18.81,18.81 -10.39,0 -18.8,-8.42 -18.8,-18.81 0,-10.37 8.42,-18.8 18.8,-18.8 10.39,0 18.81,8.41 18.81,18.8zm-197.86 -46.3l-308.58 0 0 322.51c0,6.59 5.34,11.94 11.94,11.94l59.73 0 0 23.89 -59.73 0c-19.77,0 -35.83,-16.04 -35.83,-35.83l0 -406.12c0,-19.79 16.05,-35.83 35.83,-35.83l47.78 0 0 -23.89 23.88 0 0 23.89 71.67 0 0 -23.89 23.89 0 0 23.89 71.67 0 0 -23.89 23.89 0 0 23.9 71.68 0 0 -23.9 23.89 0 0 23.9 7.26 0 -27.58 47.77 -3.57 0 0 -23.89 -71.68 0 0 23.89 -23.89 0 0 -23.89 -71.67 0 0 23.89 -23.89 0 0 -23.89 -71.67 0 0 23.89 -23.88 0 0 -23.89 -47.79 0c-6.59,0 -11.93,5.35 -11.93,11.95l0 59.72 322.38 0 -13.79 23.89zm73.64 250.84l23.89 0 0 -23.89 -23.89 0 0 23.89zm-128.82 -155.28l-2.58 0 0 4.47 2.58 -4.47zm-2.58 286.67l23.89 0 0 -23.89 -23.89 0 0 23.89zm-131.39 -131.39l23.89 0 0 -23.89 -23.89 0 0 23.89zm193.86 67.36l-59.72 -71.66c-1.79,-2.15 -2.79,-4.87 -2.79,-7.68 0,-3.17 1.27,-6.22 3.51,-8.46l88.52 -88.51 14.09 0 9.91 9.92 -87.91 87.79 52.8 63.31 -18.41 15.29zm-50.52 111.8c-105.53,-0 -191.11,-85.58 -191.11,-191.12 0,-105.53 85.59,-191.1 191.11,-191.1 5.98,0 11.89,0.29 17.74,0.83l-13.34 23.12c-1.46,-0.04 -2.92,-0.06 -4.39,-0.06 -92.34,0 -167.22,74.88 -167.22,167.22 0,92.34 74.89,167.22 167.22,167.22 92.34,0 167.22,-74.89 167.22,-167.22 0,-36.16 -11.49,-69.64 -31,-96.99l28.46 0c16.79,28.44 26.44,61.59 26.44,96.99 0,105.54 -85.59,191.11 -191.11,191.11l0 0z"/>
 </g>
</svg>
