<?xml version="1.0" encoding="UTF-8"?>
<!DOCTYPE svg PUBLIC "-//W3C//DTD SVG 1.1//EN" "http://www.w3.org/Graphics/SVG/1.1/DTD/svg11.dtd">
<!-- Creator: CorelDRAW -->
<svg xmlns="http://www.w3.org/2000/svg" xml:space="preserve" width="16.0207mm" height="16.0207mm" version="1.1" style="shape-rendering:geometricPrecision; text-rendering:geometricPrecision; image-rendering:optimizeQuality; fill-rule:evenodd; clip-rule:evenodd"
viewBox="0 0 27.57 27.57"
 xmlns:xlink="http://www.w3.org/1999/xlink"
 xmlns:xodm="http://www.corel.com/coreldraw/odm/2003">
 <defs>
  <style type="text/css">
   <![CDATA[
    .fil0 {fill:black}
   ]]>
  </style>
 </defs>
 <g id="Layer_x0020_1">
  <metadata id="CorelCorpID_0Corel-Layer"/>
  <path class="fil0" d="M27.57 13.78c0,-7.61 -6.17,-13.78 -13.78,-13.78 -7.61,0 -13.78,6.17 -13.78,13.78 0,7.61 6.17,13.78 13.78,13.78 7.61,0 13.78,-6.17 13.78,-13.78zm-9.11 0.79c0.75,0 1.36,-0.61 1.36,-1.36 0,-0.75 -0.61,-1.36 -1.36,-1.36 -0.75,0 -1.36,0.61 -1.36,1.36 0,0.75 0.61,1.36 1.36,1.36zm-8.53 0c0.75,0 1.36,-0.61 1.36,-1.36 0,-0.75 -0.61,-1.36 -1.36,-1.36 -0.75,0 -1.36,0.61 -1.36,1.36 0,0.75 0.61,1.36 1.36,1.36zm4.26 0c0.75,0 1.36,-0.61 1.36,-1.36 0,-0.75 -0.61,-1.36 -1.36,-1.36 -0.75,0 -1.36,0.61 -1.36,1.36 0,0.75 0.61,1.36 1.36,1.36zm6.03 -6.03l-12.05 0c-0.68,0 -1.22,0.55 -1.22,1.22l0 10.34c0,0.22 0.26,0.33 0.42,0.17l2.39 -2.39 10.47 0c0.68,0 1.22,-0.55 1.22,-1.22l0 -6.9c0,-0.68 -0.55,-1.22 -1.22,-1.22zm5.34 5.25c0,-6.5 -5.27,-11.77 -11.77,-11.77 -6.5,0 -11.77,5.27 -11.77,11.77 0,6.5 5.27,11.77 11.77,11.77 6.5,0 11.77,-5.27 11.77,-11.77z"/>
 </g>
</svg>
