<?xml version="1.0" encoding="UTF-8"?>
<!DOCTYPE svg PUBLIC "-//W3C//DTD SVG 1.1//EN" "http://www.w3.org/Graphics/SVG/1.1/DTD/svg11.dtd">
<!-- Creator: CorelDRAW -->
<svg xmlns="http://www.w3.org/2000/svg" xml:space="preserve" width="13.4458mm" height="14.4818mm" version="1.1" style="shape-rendering:geometricPrecision; text-rendering:geometricPrecision; image-rendering:optimizeQuality; fill-rule:evenodd; clip-rule:evenodd"
viewBox="0 0 19.47 20.97"
 xmlns:xlink="http://www.w3.org/1999/xlink"
 xmlns:xodm="http://www.corel.com/coreldraw/odm/2003">
 <defs>
  <style type="text/css">
   <![CDATA[
    .fil0 {fill:black;fill-rule:nonzero}
   ]]>
  </style>
 </defs>
 <g id="Layer_x0020_1">
  <metadata id="CorelCorpID_0Corel-Layer"/>
  <path class="fil0" d="M18.66 12.36l-0.86 -0.69c-0.14,-0.12 -0.23,-0.3 -0.23,-0.49l0 -1.27c0,-0 0,-0 0,-0 0,-0.19 0.09,-0.37 0.23,-0.49l0.83 -0.67c0.5,-0.41 0.78,-1.02 0.78,-1.66 0,-0.38 -0.1,-0.76 -0.3,-1.09l-0.84 -1.41c-0.37,-0.63 -1.05,-1.01 -1.78,-1.01 -0.21,0 -0.43,0.03 -0.63,0.1l-1.37 0.44c-0.06,0.02 -0.11,0.03 -0.17,0.03 -0.11,0 -0.22,-0.03 -0.31,-0.1l-0.92 -0.61c-0.15,-0.1 -0.25,-0.26 -0.27,-0.44l-0.18 -1.2c-0.14,-1.03 -1.02,-1.8 -2.06,-1.8l-1.69 0c-1.07,0 -1.97,0.82 -2.08,1.88l-0.12 1.12c-0.02,0.2 -0.13,0.38 -0.31,0.47l-1.19 0.64c-0.08,0.04 -0.16,0.06 -0.25,0.06 -0.09,0 -0.17,-0.02 -0.25,-0.06l-0.94 -0.36c-0.26,-0.11 -0.54,-0.17 -0.83,-0.17 -0.72,0 -1.4,0.38 -1.77,1l-0.86 1.43c-0.21,0.34 -0.31,0.72 -0.31,1.12 0,0.62 0.27,1.21 0.74,1.62l1.01 0.83c0.13,0.12 0.21,0.29 0.22,0.47l0 0.95c0,0 0,0 0,0.01 0,0.18 -0.08,0.36 -0.21,0.48l-1.06 0.99c-0.45,0.4 -0.71,0.98 -0.71,1.59 0,0.37 0.1,0.73 0.28,1.05l0.75 1.38c0.37,0.65 1.06,1.06 1.81,1.06 0.26,0 0.52,-0.05 0.76,-0.14l1.22 -0.47c0.07,-0.03 0.14,-0.04 0.21,-0.04 0.1,0 0.2,0.03 0.28,0.08l1.05 0.63c0.15,0.09 0.26,0.24 0.29,0.41l0.24 1.25c0.19,0.99 1.06,1.71 2.07,1.71 0,0 0.01,0 0.01,0l1.61 0c1.04,-0 1.92,-0.77 2.06,-1.79l0.2 -1.24c0.03,-0.19 0.14,-0.35 0.3,-0.45l0.98 -0.56c0.08,-0.04 0.16,-0.05 0.24,-0.05 0.08,0 0.17,0.02 0.24,0.05l1.23 0.47c0.23,0.09 0.48,0.14 0.74,0.14 0.74,0 1.42,-0.4 1.79,-1.04l0.81 -1.37c0.2,-0.33 0.3,-0.71 0.3,-1.1 0,-0.65 -0.3,-1.27 -0.81,-1.68l-0 0zm-8.95 -5.6c-2.07,0 -3.75,1.68 -3.75,3.75 0,2.07 1.68,3.75 3.75,3.75 2.07,0 3.75,-1.68 3.75,-3.75 0,-2.07 -1.68,-3.75 -3.75,-3.75zm0 6.01c-1.24,-0 -2.25,-1.01 -2.25,-2.25 0,-1.24 1.01,-2.25 2.25,-2.25 1.24,0 2.25,1.01 2.25,2.25 0,0.02 0,0.03 0,0.05 0,1.24 -1.01,2.25 -2.25,2.25 0,0 -0,0 -0,0l0 -0.05zm8.14 1.58l-0.81 1.37c-0.1,0.18 -0.3,0.29 -0.51,0.29 -0.07,0 -0.14,-0.01 -0.2,-0.04l-1.23 -0.47c-0.23,-0.09 -0.48,-0.13 -0.73,-0.13 -0.36,0 -0.72,0.1 -1.03,0.28l-0.98 0.56c-0.56,0.32 -0.94,0.87 -1.04,1.5l-0.2 1.25c-0.03,0.29 -0.28,0.52 -0.58,0.52l-1.59 0c-0.29,-0 -0.53,-0.21 -0.58,-0.5l-0.24 -1.25c-0.11,-0.59 -0.48,-1.11 -1,-1.42l-1.05 -0.63c-0.32,-0.19 -0.68,-0.29 -1.06,-0.29 -0,0 -0,0 -0,0 -0.26,0 -0.51,0.05 -0.75,0.14l-1.22 0.48c-0.07,0.03 -0.16,0.05 -0.24,0.05 -0.22,0 -0.41,-0.12 -0.51,-0.31l-0.75 -1.38c-0.05,-0.09 -0.07,-0.19 -0.07,-0.3 0,-0.17 0.07,-0.34 0.19,-0.45l1.11 -0.99c0.45,-0.41 0.71,-0.99 0.71,-1.59 0,-0.01 -0,-0.02 -0,-0.03l0 -0.95c-0.02,-0.61 -0.29,-1.18 -0.75,-1.58l-1.03 -0.88c-0.14,-0.12 -0.22,-0.3 -0.22,-0.48 0,-0.12 0.03,-0.23 0.09,-0.33l0.86 -1.4c0.1,-0.18 0.29,-0.3 0.5,-0.3 0.09,0 0.17,0.02 0.25,0.06l0.94 0.4c0.26,0.11 0.54,0.17 0.82,0.17 0.35,0 0.69,-0.09 1,-0.26l1.21 -0.67c0.59,-0.34 0.98,-0.95 1.04,-1.63l0.12 -1.1c0.03,-0.3 0.28,-0.53 0.58,-0.53l1.68 -0c0.3,0 0.55,0.23 0.59,0.53l0.17 1.21c0.08,0.61 0.42,1.16 0.93,1.5l0.92 0.6c0.33,0.21 0.71,0.32 1.09,0.32 0.23,0 0.46,-0.04 0.67,-0.11l1.37 -0.43c0.06,-0.02 0.12,-0.03 0.18,-0.03 0.2,0 0.39,0.11 0.49,0.28l0.84 1.39c0.06,0.1 0.09,0.21 0.09,0.32 0,0.19 -0.08,0.37 -0.23,0.49l-0.83 0.68c-0.5,0.4 -0.8,1.02 -0.8,1.66 0,0 0,0 0,0.01l0 1.27c0,0 0,0 0,0.01 0,0.64 0.29,1.24 0.79,1.64l0.86 0.69c0.14,0.12 0.22,0.3 0.22,0.49 0,0.11 -0.03,0.22 -0.08,0.31l0 0z"/>
 </g>
</svg>
