<?xml version="1.0" encoding="UTF-8"?>
<!DOCTYPE svg PUBLIC "-//W3C//DTD SVG 1.1//EN" "http://www.w3.org/Graphics/SVG/1.1/DTD/svg11.dtd">
<!-- Creator: CorelDRAW -->
<svg xmlns="http://www.w3.org/2000/svg" xml:space="preserve" width="19.6964mm" height="13.7649mm" version="1.1" style="shape-rendering:geometricPrecision; text-rendering:geometricPrecision; image-rendering:optimizeQuality; fill-rule:evenodd; clip-rule:evenodd"
viewBox="0 0 41.51 29.01"
 xmlns:xlink="http://www.w3.org/1999/xlink"
 xmlns:xodm="http://www.corel.com/coreldraw/odm/2003">
 <defs>
  <style type="text/css">
   <![CDATA[
    .fil0 {fill:black}
   ]]>
  </style>
 </defs>
 <g id="Layer_x0020_1">
  <metadata id="CorelCorpID_0Corel-Layer"/>
  <path class="fil0" d="M6.25 18.08c0,-1.6 1.3,-2.9 2.9,-2.9 1.6,0 2.89,1.3 2.89,2.9 0,1.59 -1.3,2.9 -2.89,2.9 -1.6,0 -2.9,-1.3 -2.9,-2.9zm22.54 -10.93c3.57,0 6.47,2.9 6.47,6.47 0,0.61 -0.5,1.11 -1.11,1.11l-26.78 0c-0.61,0 -1.11,-0.5 -1.11,-1.11 0,-3.57 2.9,-6.47 6.47,-6.47l16.07 0zm7.68 9.3c-0.44,-0.15 -0.75,-0.57 -0.75,-1.05 0,-0.61 0.5,-1.11 1.11,-1.11l0.24 0c0.4,0 0.76,0.21 0.96,0.55 0.12,0.21 0.34,0.34 0.58,0.34 0.37,0 0.68,-0.3 0.68,-0.68 0,-0.37 -0.3,-0.68 -0.68,-0.68l-1.83 0c-0.57,0 -1.04,-0.43 -1.1,-0.99 -0.39,-3.51 -3.35,-6.15 -6.88,-6.15l-16.07 0c-3.53,0 -6.49,2.64 -6.88,6.15 -0.06,0.56 -0.54,0.99 -1.1,0.99l-1.83 0c-0.37,0 -0.68,0.3 -0.68,0.68 0,0.37 0.3,0.68 0.68,0.68 0.24,0 0.46,-0.13 0.58,-0.34 0.2,-0.34 0.57,-0.55 0.96,-0.55l0.24 0c0.61,0 1.11,0.5 1.11,1.11l0 6.93 29.92 0 0 -3.35c0,-0.61 0.5,-1.11 1.11,-1.11 0.61,0 1.11,0.5 1.11,1.11l0 8.93c0,0.61 -0.5,1.11 -1.11,1.11l-7.14 0c-0.61,0 -1.11,-0.5 -1.11,-1.11l0 -3.35 -15.64 0 0 3.35c0,0.61 -0.5,1.11 -1.11,1.11l-7.14 0c-0.61,0 -1.11,-0.5 -1.11,-1.11l0 -10.58c-0.22,0.05 -0.45,0.08 -0.68,0.08 -1.6,0 -2.9,-1.3 -2.9,-2.9 0,-1.6 1.3,-2.9 2.9,-2.9l0.89 0c0.93,-4.16 4.63,-7.14 8.93,-7.14l12.04 0 -0.45 -2.24 -7.11 0 -0.18 0.89c-0.12,0.6 -0.71,0.99 -1.31,0.87 -0.6,-0.12 -0.99,-0.71 -0.87,-1.31l0.36 -1.79c0.1,-0.52 0.56,-0.89 1.09,-0.89l8.93 0c0.53,0 0.98,0.37 1.09,0.89l0.72 3.57 1.77 0c4.3,0 8,2.98 8.93,7.14l0.89 0c1.6,0 2.9,1.3 2.9,2.9 0,1.6 -1.3,2.9 -2.9,2.9 -0.82,0 -1.6,-0.35 -2.14,-0.95zm-22.86 -1.27l14.28 0c0.61,0 1.11,0.5 1.11,1.11l0 3.57c0,0.61 -0.5,1.11 -1.11,1.11l-14.28 0c-0.61,0 -1.11,-0.5 -1.11,-1.11l0 -3.57c0,-0.61 0.5,-1.11 1.11,-1.11zm18.75 0c1.6,0 2.9,1.3 2.9,2.9 0,1.6 -1.3,2.9 -2.9,2.9 -1.59,0 -2.89,-1.3 -2.89,-2.9 0,-1.6 1.3,-2.9 2.89,-2.9zm-22.54 2.9c0,-0.37 -0.3,-0.68 -0.68,-0.68 -0.37,0 -0.68,0.3 -0.68,0.68 0,0.37 0.3,0.67 0.68,0.67 0.37,0 0.68,-0.3 0.68,-0.67zm-1.21 -5.58l24.27 0c-0.49,-1.83 -2.17,-3.13 -4.1,-3.13l-16.07 0c-1.93,0 -3.61,1.31 -4.1,3.13zm27.1 12.04l-4.92 0 0 2.24 4.92 0 0 -2.24zm-25 0l-4.92 0 0 2.24 4.92 0 0 -2.24zm16.07 -5.79l0 -1.35 -12.07 0 0 1.35 12.07 0zm5.57 0c0.37,0 0.68,-0.3 0.68,-0.67 0,-0.37 -0.3,-0.68 -0.68,-0.68 -0.37,0 -0.68,0.3 -0.68,0.68 0,0.37 0.3,0.67 0.68,0.67z"/>
 </g>
</svg>
