<svg width="91" height="110" viewBox="0 0 91 110" version="1.1" xmlns="http://www.w3.org/2000/svg" xmlns:xlink="http://www.w3.org/1999/xlink">
<title>Group</title>
<desc>Created using Figma</desc>
<g id="Canvas" transform="translate(-1252 244)">
<g id="Group">
<g id="Group">
<g id="Group">
<g id="Vector">
<use xlink:href="#path0_fill" transform="translate(1269.37 -244)" fill="#2F4050"/>
</g>
</g>
<g id="Group">
<g id="Vector">
<use xlink:href="#path1_fill" transform="translate(1306.18 -191.785)" fill="#2F4050"/>
</g>
</g>
<g id="Group">
<g id="Vector">
<use xlink:href="#path2_fill" transform="translate(1252 -191.785)" fill="#2F4050"/>
</g>
</g>
</g>
</g>
</g>
<defs>
<path id="path0_fill" d="M 27.7862 62.6582C 12.5038 62.6582 5.29979e-06 48.7342 5.29979e-06 31.3291C 5.29979e-06 13.9241 12.5038 2.6558e-06 27.7862 2.6558e-06C 43.0686 2.6558e-06 55.5723 13.9241 55.5723 31.3291C 55.5723 48.7342 43.0686 62.6582 27.7862 62.6582ZM 27.7862 6.96203C 15.977 6.96203 6.94654 18.1013 6.94654 31.3291C 6.94654 44.557 15.977 55.6962 27.7862 55.6962C 39.5953 55.6962 48.6258 44.557 48.6258 31.3291C 48.6258 18.1013 39.5953 6.96203 27.7862 6.96203Z"/>
<path id="path1_fill" d="M 32.6487 57.7848C 30.5648 57.7848 29.1755 56.3924 29.1755 54.3038L 29.1755 30.6329C 29.1755 17.4051 18.7556 6.96203 5.55723 6.96203L 3.47327 6.96203C 1.38931 6.96203 0 5.56962 0 3.48101C 0 1.39241 1.38931 2.6558e-06 3.47327 2.6558e-06L 6.25188 2.6558e-06C 22.9236 2.6558e-06 36.8167 13.9241 36.8167 30.6329L 36.8167 54.3038C 36.122 56.3924 34.7327 57.7848 32.6487 57.7848Z"/>
<path id="path2_fill" d="M 3.47327 57.7848C 1.38931 57.7848 -1.32495e-06 56.3924 -1.32495e-06 54.3038L -1.32495e-06 30.6329C -1.32495e-06 13.9241 13.8931 2.6558e-06 30.5648 2.6558e-06L 33.3434 2.6558e-06C 35.4273 2.6558e-06 36.8167 1.39241 36.8167 3.48101C 36.8167 5.56962 35.4273 6.96203 33.3434 6.96203L 30.5648 6.96203C 17.3664 6.96203 6.94654 17.4051 6.94654 30.6329L 6.94654 54.3038C 6.94654 56.3924 5.55723 57.7848 3.47327 57.7848Z"/>
</defs>
</svg>
