<?xml version="1.0" encoding="UTF-8"?>
<!DOCTYPE svg PUBLIC "-//W3C//DTD SVG 1.1//EN" "http://www.w3.org/Graphics/SVG/1.1/DTD/svg11.dtd">
<!-- Creator: CorelDRAW -->
<svg xmlns="http://www.w3.org/2000/svg" xml:space="preserve" width="17.8552mm" height="10.0435mm" version="1.1" style="shape-rendering:geometricPrecision; text-rendering:geometricPrecision; image-rendering:optimizeQuality; fill-rule:evenodd; clip-rule:evenodd"
viewBox="0 0 34.18 19.22"
 xmlns:xlink="http://www.w3.org/1999/xlink"
 xmlns:xodm="http://www.corel.com/coreldraw/odm/2003">
 <defs>
  <style type="text/css">
   <![CDATA[
    .fil0 {fill:black;fill-rule:nonzero}
   ]]>
  </style>
 </defs>
 <g id="Layer_x0020_1">
  <metadata id="CorelCorpID_0Corel-Layer"/>
  <path class="fil0" d="M17.09 12.1l-0.02 -0 -2.11 0c-1.18,-0 -2.14,0.96 -2.14,2.14l0 3.56 8.54 0 0 -3.56c0,-1.18 -0.96,-2.14 -2.14,-2.14l-2.14 0 0 0zm-7.12 3.56l-9.26 0c-0.39,-0 -0.71,-0.32 -0.71,-0.71l-0 -4.27c0,-1.64 1.12,-3.03 2.63,-3.44 -0.75,-0.77 -1.2,-1.82 -1.2,-2.97 0,-2.36 1.91,-4.27 4.27,-4.27 2.36,0 4.27,1.91 4.27,4.27 -0,1.16 -0.46,2.2 -1.21,2.97 1.51,0.41 2.63,1.79 2.63,3.44l-1.42 0c0,-1.18 -0.96,-2.14 -2.14,-2.14l-2.14 0 -0 0 -0.02 -0 -2.11 0c-1.18,-0 -2.14,0.96 -2.14,2.14l0 3.56 8.54 0 0 1.42zm-4.27 -14.24c-1.57,0 -2.85,1.28 -2.85,2.85 0,1.57 1.28,2.85 2.85,2.85 1.57,0 2.85,-1.28 2.85,-2.85 0,-1.57 -1.28,-2.85 -2.85,-2.85l-0 -0zm27.77 14.24l-9.26 0 0 -1.42 8.54 0 0 -3.56c0,-1.18 -0.96,-2.14 -2.14,-2.14l-2.14 0 0 0 -0.02 -0 -2.11 0c-1.18,-0 -2.14,0.96 -2.14,2.14l-1.42 0c0,-1.64 1.11,-3.02 2.63,-3.44 -0.75,-0.77 -1.2,-1.82 -1.2,-2.97 0,-2.36 1.91,-4.27 4.27,-4.27 2.36,0 4.27,1.91 4.27,4.27 -0,1.16 -0.46,2.2 -1.21,2.97 1.51,0.41 2.63,1.79 2.63,3.44l0 4.27c0,0.39 -0.32,0.71 -0.71,0.71l0 0zm-4.98 -14.24c-1.57,0 -2.85,1.28 -2.85,2.85 0,1.57 1.28,2.85 2.85,2.85 1.57,0 2.85,-1.28 2.85,-2.85 0,-1.57 -1.28,-2.85 -2.85,-2.85l0 -0zm-14.46 9.38c-0.75,-0.77 -1.2,-1.82 -1.2,-2.97 0,-2.36 1.91,-4.27 4.27,-4.27 2.36,0 4.27,1.91 4.27,4.27 -0,1.16 -0.46,2.2 -1.21,2.97 1.51,0.41 2.63,1.79 2.63,3.44l0 4.27c0,0.39 -0.32,0.71 -0.71,0.71l0 0 -9.97 0c-0.39,-0 -0.71,-0.32 -0.71,-0.71l-0 -4.27c0,-1.64 1.12,-3.03 2.63,-3.44zm3.07 -5.82c-1.57,0 -2.85,1.28 -2.85,2.85 0,1.57 1.28,2.85 2.85,2.85 1.57,0 2.85,-1.28 2.85,-2.85 0,-1.57 -1.28,-2.85 -2.85,-2.85z"/>
 </g>
</svg>
