<svg width="15" height="14" viewBox="0 0 15 14" version="1.1" xmlns="http://www.w3.org/2000/svg" xmlns:xlink="http://www.w3.org/1999/xlink">
<title>search</title>
<desc>Created using Figma</desc>
<g id="Canvas" transform="translate(698 342)">
<g id="search">
<g id="Group">
<g id="Group">
<g id="Group">
<g id="Vector">
<use xlink:href="#path0_fill" transform="translate(-698 -342)" fill="#FFFCFB"/>
</g>
</g>
<g id="Group">
<g id="Vector">
<use xlink:href="#path1_fill" transform="translate(-689.3 -333.2)" fill="#FFFCFB"/>
</g>
</g>
</g>
</g>
</g>
</g>
<defs>
<path id="path0_fill" d="M 5.5 11C 2.5 11 0 8.5 0 5.5C 0 2.5 2.5 0 5.5 0C 8.5 0 11 2.5 11 5.5C 11 8.5 8.5 11 5.5 11ZM 5.5 1C 3 1 1 3 1 5.5C 1 8 3 10 5.5 10C 8 10 10 8 10 5.5C 10 3 8 1 5.5 1Z"/>
<path id="path1_fill" d="M 0.8 -7.62939e-07L 5.2 4.4C 5.4 4.6 5.4 4.9 5.2 5.1C 5.1 5.2 4.9 5.2 4.8 5.2C 4.7 5.2 4.5 5.2 4.4 5.1L 7.62939e-07 0.7L 0.8 -7.62939e-07Z"/>
</defs>
</svg>
