<?xml version="1.0" encoding="UTF-8"?>
<!DOCTYPE svg PUBLIC "-//W3C//DTD SVG 1.1//EN" "http://www.w3.org/Graphics/SVG/1.1/DTD/svg11.dtd">
<!-- Creator: CorelDRAW -->
<svg xmlns="http://www.w3.org/2000/svg" xml:space="preserve" width="16.5565mm" height="12.2888mm" version="1.1" style="shape-rendering:geometricPrecision; text-rendering:geometricPrecision; image-rendering:optimizeQuality; fill-rule:evenodd; clip-rule:evenodd"
viewBox="0 0 563.54 418.28"
 xmlns:xlink="http://www.w3.org/1999/xlink"
 xmlns:xodm="http://www.corel.com/coreldraw/odm/2003">
 <defs>
  <style type="text/css">
   <![CDATA[
    .fil0 {fill:black}
   ]]>
  </style>
 </defs>
 <g id="Capa_x0020_1">
  <metadata id="CorelCorpID_0Corel-Layer"/>
  <path class="fil0" d="M391.27 74.11l0 24.05 74.11 0 0 74.11 24.05 0 0 -74.11 74.11 0 0 -24.05 -74.11 0 0 -74.11 -24.05 0 0 74.11 -74.11 0zm-161.89 113.41c20.07,-20.68 31.22,-48.1 31.24,-76.92 0.04,-61.1 -49.53,-110.59 -110.6,-110.59 -61.1,0 -110.6,49.5 -110.6,110.6 0,28.82 11.14,56.23 31.18,76.92l9.04 9.34 -12.54 3.4c-39.5,10.71 -67.1,46.69 -67.1,87.71l0 118.27c0,6.68 5.35,12.04 12.04,12.04l275.93 0c6.68,0 12.04,-5.35 12.04,-12.04l0 -118.27c0,-41.05 -27.57,-77.02 -67.13,-87.71l-12.57 -3.4 9.06 -9.35zm-138.53 33.68l118.3 -0.03c36.9,-0.02 66.81,29.92 66.81,66.81l0 106.23 -251.88 0 0 -106.23c0,-36.88 29.9,-66.77 66.77,-66.77zm59.17 -197.15c47.79,0 86.52,38.77 86.52,86.55 0,47.77 -38.76,86.49 -86.52,86.49 -47.77,0 -86.52,-38.7 -86.52,-86.49 0,-47.79 38.72,-86.55 86.52,-86.55z"/>
 </g>
</svg>
