<?xml version="1.0" encoding="UTF-8"?>
<!DOCTYPE svg PUBLIC "-//W3C//DTD SVG 1.1//EN" "http://www.w3.org/Graphics/SVG/1.1/DTD/svg11.dtd">
<!-- Creator: CorelDRAW -->
<svg xmlns="http://www.w3.org/2000/svg" xml:space="preserve" width="13.2083mm" height="18.6267mm" version="1.1" style="shape-rendering:geometricPrecision; text-rendering:geometricPrecision; image-rendering:optimizeQuality; fill-rule:evenodd; clip-rule:evenodd"
viewBox="0 0 17.68 24.94"
 xmlns:xlink="http://www.w3.org/1999/xlink"
 xmlns:xodm="http://www.corel.com/coreldraw/odm/2003">
 <defs>
  <style type="text/css">
   <![CDATA[
    .fil0 {fill:black}
   ]]>
  </style>
 </defs>
 <g id="Layer_x0020_1">
  <metadata id="CorelCorpID_0Corel-Layer"/>
  <path class="fil0" d="M14.82 9.11l0 -3.25c0,-2.8 -2.3,-5.08 -5.12,-5.08l-1.72 0c-2.82,0 -5.12,2.28 -5.12,5.08l0 3.25 11.96 0zm-0.42 4.88l2.5 0 0 2.38 -2.5 0 0 0.78 2.5 0 0 2.39 -2.5 0 0 0.78 2.5 0 0 3.84 -16.12 0 0 -3.84 2.5 0 0 -0.78 -2.5 0 0 -2.39 2.5 0 0 -0.78 -2.5 0 0 -2.38 2.5 0 0 -0.78 -2.5 0 0 -3.33 16.12 0 0 3.33 -2.5 0 0 0.78zm-5.95 6.27l0.78 0 0 -3.67c0.75,-0.18 1.31,-0.84 1.31,-1.64 0,-0.93 -0.76,-1.68 -1.7,-1.68 -0.93,0 -1.7,0.76 -1.7,1.68 0,0.8 0.56,1.46 1.31,1.64l0 3.67zm0.62 -4.43l-0.45 0c-0.4,-0.1 -0.69,-0.46 -0.69,-0.88 0,-0.5 0.41,-0.91 0.92,-0.91 0.51,0 0.92,0.41 0.92,0.91 0,0.42 -0.29,0.78 -0.69,0.88zm-6.99 -6.73l0 -3.25c0,-3.23 2.65,-5.86 5.9,-5.86l1.72 0c3.25,0 5.9,2.63 5.9,5.86l0 3.25 2.08 0 0 15.83 -17.68 0 0 -15.83 2.08 0z"/>
 </g>
</svg>
