<?xml version="1.0" encoding="UTF-8"?>
<!DOCTYPE svg PUBLIC "-//W3C//DTD SVG 1.1//EN" "http://www.w3.org/Graphics/SVG/1.1/DTD/svg11.dtd">
<!-- Creator: CorelDRAW -->
<svg xmlns="http://www.w3.org/2000/svg" xml:space="preserve" width="12.0084mm" height="12.0134mm" version="1.1" style="shape-rendering:geometricPrecision; text-rendering:geometricPrecision; image-rendering:optimizeQuality; fill-rule:evenodd; clip-rule:evenodd"
viewBox="0 0 369.57 369.73"
 xmlns:xlink="http://www.w3.org/1999/xlink"
 xmlns:xodm="http://www.corel.com/coreldraw/odm/2003">
 <defs>
  <style type="text/css">
   <![CDATA[
    .fil0 {fill:black}
   ]]>
  </style>
 </defs>
 <g id="Capa_x0020_1">
  <metadata id="CorelCorpID_0Corel-Layer"/>
  <path class="fil0" d="M260.02 242.08l50.54 50.41c12.84,12.8 25.65,25.64 38.39,38.53 4.06,4.12 8.13,8.24 12.16,12.38 1.6,1.64 4.05,3.92 5.4,5.74 9.42,12.65 -4.87,26.94 -17.53,17.52 -1.81,-1.35 -4.09,-3.8 -5.74,-5.4 -4.15,-4.03 -8.26,-8.1 -12.38,-12.16 -12.9,-12.74 -25.73,-25.55 -38.53,-38.39l-50.41 -50.54 -1.75 1.45c-8.63,7.16 -18.97,13.57 -29.08,18.47 -56.17,27.23 -123.52,15.85 -167.73,-28.18 -23.27,-23.17 -37.66,-52.15 -42.33,-84.65 -1.56,-10.89 -1.37,-34.04 0.67,-44.79 8.97,-47.19 37.37,-85.79 80.35,-107.4 12.13,-6.1 28.8,-11.47 42.23,-13.39 2.36,-0.34 4.71,-0.74 7.06,-1.06 8.42,-1.15 27.9,-0.59 36.4,0.64 32.03,4.64 61.17,19.33 84.01,42.26 16.41,16.47 27.39,34.46 35.07,56.4 16.49,47.09 6.52,102.04 -25.36,140.41l-1.45 1.74zm-92.95 -215.56c-5.93,-1.02 -24.16,-2.11 -29.89,-1.24 -2.62,0.33 -5.19,0.71 -7.75,1.06 -14.68,1.97 -32.22,8.17 -44.83,15.95 -31.96,19.72 -52.59,50.32 -58.58,87.41 -1.35,8.38 -1.33,27.06 0,35.47 2.56,16.13 8.67,33.24 17.48,46.98 19.74,30.78 49.92,50.77 86.09,56.39 9.72,1.51 25.3,1.5 35.02,0 27.09,-4.2 49.6,-15.4 68.98,-34.79 13.63,-13.63 22.36,-27.56 28.96,-45.66 8.09,-22.19 9.16,-48.83 3.04,-71.65 -12.58,-46.93 -50.65,-81.68 -98.54,-89.92z"/>
 </g>
</svg>
