<?xml version="1.0" encoding="UTF-8"?>
<!DOCTYPE svg PUBLIC "-//W3C//DTD SVG 1.1//EN" "http://www.w3.org/Graphics/SVG/1.1/DTD/svg11.dtd">
<!-- Creator: CorelDRAW -->
<svg xmlns="http://www.w3.org/2000/svg" xml:space="preserve" width="16.8247mm" height="16.8353mm" version="1.1" style="shape-rendering:geometricPrecision; text-rendering:geometricPrecision; image-rendering:optimizeQuality; fill-rule:evenodd; clip-rule:evenodd"
viewBox="0 0 2020.81 2022.08"
 xmlns:xlink="http://www.w3.org/1999/xlink"
 xmlns:xodm="http://www.corel.com/coreldraw/odm/2003">
 <defs>
  <style type="text/css">
   <![CDATA[
    .fil0 {fill:black}
   ]]>
  </style>
 </defs>
 <g id="Capa_x0020_1">
  <metadata id="CorelCorpID_0Corel-Layer"/>
  <path class="fil0" d="M2019.34 1547.7c-0.31,-2.23 -0.56,-5.68 -1.14,-7.42 -0.58,-1.67 -2.46,-4.66 -3.32,-6.27 -0.92,-1.62 -2.58,-4.86 -4.42,-6.95 -2.53,-3.01 -4.19,-5.66 -3.46,-5.55l-592.66 -591.98 5.37 -20.29c16.18,-60.92 25.04,-123.57 25.04,-186.67 0,-193.03 -75.15,-374.38 -211.64,-510.85 -136.55,-136.54 -317.85,-211.71 -510.99,-211.71 -193.04,0 -374.41,75.16 -510.92,211.71 -281.66,281.74 -281.55,740.17 0.08,1021.92 136.5,136.54 317.8,211.64 510.84,211.64 63.15,0 125.8,-8.86 186.75,-25.09l20.27 -5.44 139.04 139.11c7.42,7.39 17.34,11.58 27.84,11.55l86.42 -0.22 0 86.29c0,10.5 4.12,20.59 11.55,28.01l25.97 25.94c7.45,7.43 17.4,11.55 27.93,11.55l162.22 0.04 0 162.26c0,10.49 4.13,20.5 11.55,27.93l99.87 100.65c-0.05,-0.71 2.91,1.43 5.26,3.8 1.92,1.81 5.97,3.84 8.76,5.28 2.5,1.31 4.58,2.73 4.94,3.25 2.58,0.84 7.42,1.9 12.34,1.9 1.87,0 3.82,-0.12 5.71,-0.37l371.28 -52.86c0.07,-0.52 2.8,-1.65 6.08,-2.5 2.82,-0.68 5.78,-1.56 8.67,-3 2.1,-1.01 3.78,-2.05 5.43,-3.19 2.07,-1.44 4.01,-3.52 5.72,-5.4 1.25,-1.37 3.03,-3.18 4.08,-4.74 1.36,-1.99 2.58,-5.48 3.47,-7.72 0.76,-1.81 1.78,-4.11 2.13,-5.62 0.64,-3.22 1.77,-6.39 2.19,-5.93l53.23 -368.84c-0.62,0.5 -0.9,-2.91 -0.66,-6.08 0.08,-2.11 -0.42,-5.37 -0.8,-8.11zm-1522.59 -1128.6l-0.83 0c-41.91,0 -75.44,33.93 -75.44,75.9 0,41.97 34.3,75.9 76.27,75.9 41.93,0 75.91,-33.93 75.91,-75.9 0,-41.97 -34.02,-75.9 -75.91,-75.9zm-229.61 758.72c-250.8,-250.96 -250.96,-659.2 -0.05,-910.13 121.47,-121.53 283.18,-188.57 455.03,-188.57 171.91,0 333.62,67.01 455.17,188.57 121.47,121.49 188.48,283.21 188.48,455 0,171.9 -67.01,333.62 -188.58,455.13 -121.5,121.53 -283.23,188.5 -455.06,188.5 -171.78,0 -333.53,-66.97 -454.99,-188.5zm994.27 460.31l0.12 -112.25c0,-10.47 -4.1,-20.53 -11.52,-27.91 -7.42,-7.41 -17.45,-11.61 -27.93,-11.61l-109.59 0.13 -100.08 -100.05 43.92 -22.94c65.2,-34.12 124.75,-77.79 176.78,-129.79 52.04,-52.04 95.81,-111.7 129.95,-176.87l22.98 -43.86 553.54 553.58 -47.28 327.57 -325.4 46.59 -77.72 -77.72 0 -185.38c0,-21.9 -17.63,-39.48 -39.52,-39.48l-188.26 0z"/>
 </g>
</svg>
