<?xml version="1.0" encoding="UTF-8"?>
<!DOCTYPE svg PUBLIC "-//W3C//DTD SVG 1.1//EN" "http://www.w3.org/Graphics/SVG/1.1/DTD/svg11.dtd">
<!-- Creator: CorelDRAW -->
<svg xmlns="http://www.w3.org/2000/svg" xml:space="preserve" width="9.1722mm" height="13.4548mm" version="1.1" style="shape-rendering:geometricPrecision; text-rendering:geometricPrecision; image-rendering:optimizeQuality; fill-rule:evenodd; clip-rule:evenodd"
viewBox="0 0 142.09 208.43"
 xmlns:xlink="http://www.w3.org/1999/xlink"
 xmlns:xodm="http://www.corel.com/coreldraw/odm/2003">
 <defs>
  <style type="text/css">
   <![CDATA[
    .fil0 {fill:black;fill-rule:nonzero}
   ]]>
  </style>
 </defs>
 <g id="Layer_x0020_1">
  <metadata id="CorelCorpID_0Corel-Layer"/>
  <path id="_555623168" class="fil0" d="M56.89 173.31l-43.53 35.11 -13.36 -8 10.34 -55.11 1.04 -2.76 80.31 -133.27c2.15,-3.57 5.21,-6.28 8.41,-7.79 4.28,-2.02 8.91,-2.07 12.87,0.31l22.82 13.75c3.95,2.38 6.07,6.51 6.28,11.25 0.16,3.53 -0.81,7.5 -2.96,11.06l-80.3 133.26 -1.92 2.18 0 -0zm-26.98 -29.3l18.95 11.42 58.92 -97.77 -18.95 -11.42 -58.92 97.76zm7.32 23.82l-12.78 -7.7 -3.98 21.22 16.77 -13.52zm79.12 -124.41l8.52 -14.14c0.14,-0.24 0.26,-0.47 0.36,-0.68l-18.87 -11.37c-0.15,0.18 -0.29,0.4 -0.44,0.64l-8.52 14.14 18.95 11.42z"/>
 </g>
</svg>
