<?xml version="1.0" encoding="UTF-8"?>
<!DOCTYPE svg PUBLIC "-//W3C//DTD SVG 1.1//EN" "http://www.w3.org/Graphics/SVG/1.1/DTD/svg11.dtd">
<!-- Creator: CorelDRAW -->
<svg xmlns="http://www.w3.org/2000/svg" xml:space="preserve" width="15.7823mm" height="15.7823mm" version="1.1" style="shape-rendering:geometricPrecision; text-rendering:geometricPrecision; image-rendering:optimizeQuality; fill-rule:evenodd; clip-rule:evenodd"
viewBox="0 0 366.87 366.87"
 xmlns:xlink="http://www.w3.org/1999/xlink"
 xmlns:xodm="http://www.corel.com/coreldraw/odm/2003">
 <defs>
  <style type="text/css">
   <![CDATA[
    .fil0 {fill:#01F076}
    .fil1 {fill:white;fill-rule:nonzero}
   ]]>
  </style>
 </defs>
 <g id="Layer_x0020_1">
  <metadata id="CorelCorpID_0Corel-Layer"/>
  <circle class="fil0" cx="183.44" cy="183.44" r="183.44"/>
  <path id="_555623168" class="fil1" d="M166.7 265.08l-51.44 41.5 -15.79 -9.45 12.22 -65.13 1.23 -3.26 94.9 -157.49c2.54,-4.21 6.16,-7.42 9.94,-9.21 5.06,-2.38 10.53,-2.45 15.21,0.37l26.96 16.25c4.67,2.82 7.17,7.7 7.43,13.3 0.19,4.17 -0.96,8.86 -3.5,13.07l-94.9 157.48 -2.27 2.58 0 -0zm-31.88 -34.62l22.39 13.5 69.62 -115.54 -22.39 -13.49 -69.62 115.53zm8.65 28.16l-15.11 -9.1 -4.71 25.08 19.81 -15.98zm93.5 -147.02l10.07 -16.71c0.17,-0.28 0.31,-0.55 0.42,-0.81l-22.3 -13.44c-0.17,0.21 -0.35,0.47 -0.52,0.75l-10.07 16.71 22.39 13.49z"/>
 </g>
</svg>
