<?xml version="1.0" encoding="UTF-8"?>
<!DOCTYPE svg PUBLIC "-//W3C//DTD SVG 1.1//EN" "http://www.w3.org/Graphics/SVG/1.1/DTD/svg11.dtd">
<svg xmlns="http://www.w3.org/2000/svg" version="1.1" width="32px" height="48px" style="shape-rendering:geometricPrecision; text-rendering:geometricPrecision; image-rendering:optimizeQuality; fill-rule:evenodd; clip-rule:evenodd" xmlns:xlink="http://www.w3.org/1999/xlink">
<g><path style="opacity:0.775" fill="#fefffe" d="M 21.5,-0.5 C 22.8333,-0.5 24.1667,-0.5 25.5,-0.5C 27.2048,1.19211 29.2048,2.52544 31.5,3.5C 31.5,5.5 31.5,7.5 31.5,9.5C 25.1079,19.2687 18.9412,29.2687 13,39.5C 9.64249,42.0312 6.47583,44.6979 3.5,47.5C 2.83333,47.5 2.16667,47.5 1.5,47.5C 1.15829,46.6618 0.491622,46.3284 -0.5,46.5C -0.5,44.1667 -0.5,41.8333 -0.5,39.5C 5.22513,25.3914 12.5585,12.058 21.5,-0.5 Z M 23.5,4.5 C 26.0848,5.46542 26.5848,6.79876 25,8.5C 22.5003,7.8424 22.0003,6.50907 23.5,4.5 Z M 19.5,11.5 C 20.6431,11.9081 21.6431,12.5748 22.5,13.5C 18.9202,20.7288 14.5869,27.3954 9.5,33.5C 8.5,33.1667 7.83333,32.5 7.5,31.5C 11.5113,24.8056 15.5113,18.1389 19.5,11.5 Z"/></g>
</svg>
