<?xml version="1.0" encoding="UTF-8"?>
<!DOCTYPE svg PUBLIC "-//W3C//DTD SVG 1.1//EN" "http://www.w3.org/Graphics/SVG/1.1/DTD/svg11.dtd">
<!-- Creator: CorelDRAW -->
<svg xmlns="http://www.w3.org/2000/svg" xml:space="preserve" width="18.8391mm" height="17.4225mm" version="1.1" style="shape-rendering:geometricPrecision; text-rendering:geometricPrecision; image-rendering:optimizeQuality; fill-rule:evenodd; clip-rule:evenodd"
viewBox="0 0 40.68 37.62"
 xmlns:xlink="http://www.w3.org/1999/xlink"
 xmlns:xodm="http://www.corel.com/coreldraw/odm/2003">
 <defs>
  <style type="text/css">
   <![CDATA[
    .fil0 {fill:black;fill-rule:nonzero}
   ]]>
  </style>
 </defs>
 <g id="Layer_x0020_1">
  <metadata id="CorelCorpID_0Corel-Layer"/>
  <g id="_555623432">
   <polygon id="_555623168" class="fil0" points="28.53,30.63 31.91,32.66 31.04,34.11 27.66,32.08 "/>
   <polygon id="_555623192" class="fil0" points="35.41,19.22 38.79,21.25 37.91,22.7 34.53,20.67 "/>
   <path id="_555623336" class="fil0" d="M32 34.05l-4.43 3.58 -1.36 -0.81 1.05 -5.61 0.11 -0.28 8.18 -13.57c0.22,-0.36 0.53,-0.64 0.86,-0.79 0.44,-0.21 0.91,-0.21 1.31,0.03l2.32 1.4c0.4,0.24 0.62,0.66 0.64,1.15 0.02,0.36 -0.08,0.76 -0.3,1.13l-8.18 13.57 -0.2 0.22 0 -0zm-3.71 0.82l2.53 -2.04 8.1 -13.45c0.01,-0.02 0.03,-0.05 0.04,-0.07l-1.92 -1.16c-0.01,0.02 -0.03,0.04 -0.04,0.06l-8.1 13.45 -0.6 3.21 0 0z"/>
   <path id="_555622880" class="fil0" d="M26.52 25.74c-0.36,-0.92 -1.24,-1.84 -2.33,-2.67 -2.38,-1.82 -5.62,-3.12 -6.83,-3.32 -1.37,-0.22 -1.39,-2.73 -1.39,-2.74l-0 -0.36 0.25 -0.25c0,-0 1.75,-1.73 2.12,-4.03l0.12 -0.71 0.72 0c0.01,0 0.01,-0.03 0.05,-0.07 0.11,-0.13 0.2,-0.31 0.27,-0.52 0.07,-0.23 0.12,-0.49 0.12,-0.75 0,-0.37 -0.08,-0.7 -0.28,-0.87l-0.32 -0.27 0.02 -0.41c0.01,-0.13 0.02,-0.26 0.04,-0.43 0.04,-0.37 0.1,-0.94 0.1,-1.61 0,-2.05 -0.66,-5.04 -4.98,-5.04 -4.33,0 -4.98,2.99 -4.98,5.04 0,0.67 0.06,1.24 0.1,1.61 0.02,0.17 0.03,0.31 0.04,0.43l0.02 0.41 -0.32 0.27c-0.19,0.16 -0.28,0.5 -0.28,0.87 0,0.26 0.04,0.52 0.12,0.75 0.07,0.21 0.16,0.39 0.27,0.52 0.04,0.05 0.04,0.07 0.05,0.07l0.72 0 0.12 0.71c0.38,2.3 2.12,4.02 2.12,4.03l0.25 0.25 -0 0.36c0,0.01 -0.02,2.52 -1.39,2.74 -1.21,0.19 -4.45,1.5 -6.83,3.32 -1.09,0.83 -1.97,1.75 -2.33,2.67l24.66 0 0 0zm-1.3 -4.01c1.8,1.37 3.17,3.04 3.17,4.86l0 0.85 -0.85 0 -26.69 0 -0.85 0 0 -0.85c0,-1.81 1.36,-3.48 3.17,-4.86 2.6,-1.99 6.22,-3.42 7.59,-3.64 0.03,-0 0.01,-0.4 -0.01,-0.72 -0.51,-0.57 -1.78,-2.15 -2.27,-4.19 -0.23,-0.12 -0.43,-0.29 -0.61,-0.5 -0.25,-0.29 -0.45,-0.68 -0.58,-1.1 -0.13,-0.4 -0.2,-0.84 -0.2,-1.27 0,-0.65 0.17,-1.3 0.55,-1.81 -0.05,-0.42 -0.11,-1.06 -0.11,-1.78 0,-2.74 0.88,-6.73 6.68,-6.73 5.8,0 6.68,3.99 6.68,6.73 0,0.72 -0.07,1.36 -0.11,1.78 0.38,0.5 0.55,1.15 0.55,1.81 0,0.42 -0.07,0.86 -0.2,1.27 -0.13,0.42 -0.34,0.8 -0.58,1.1 -0.18,0.21 -0.39,0.38 -0.61,0.5 -0.49,2.04 -1.76,3.62 -2.27,4.19 -0.02,0.31 -0.04,0.71 -0.01,0.72 1.37,0.22 4.99,1.65 7.59,3.64l0 0z"/>
  </g>
 </g>
</svg>
