<?xml version="1.0" encoding="UTF-8"?>
<!DOCTYPE svg PUBLIC "-//W3C//DTD SVG 1.1//EN" "http://www.w3.org/Graphics/SVG/1.1/DTD/svg11.dtd">
<!-- Creator: CorelDRAW -->
<svg xmlns="http://www.w3.org/2000/svg" xml:space="preserve" width="17.7214mm" height="14.4423mm" version="1.1" style="shape-rendering:geometricPrecision; text-rendering:geometricPrecision; image-rendering:optimizeQuality; fill-rule:evenodd; clip-rule:evenodd"
viewBox="0 0 35.55 28.97"
 xmlns:xlink="http://www.w3.org/1999/xlink"
 xmlns:xodm="http://www.corel.com/coreldraw/odm/2003">
 <defs>
  <style type="text/css">
   <![CDATA[
    .fil0 {fill:black;fill-rule:nonzero}
   ]]>
  </style>
 </defs>
 <g id="Layer_x0020_1">
  <metadata id="CorelCorpID_0Corel-Layer"/>
  <path id="_555622880" class="fil0" d="M24.64 23.91c-0.33,-0.85 -1.15,-1.7 -2.16,-2.47 -2.21,-1.69 -5.22,-2.9 -6.35,-3.08 -1.27,-0.2 -1.29,-2.54 -1.29,-2.54l-0 -0.33 0.23 -0.23c0.01,-0.01 1.62,-1.6 1.97,-3.74l0.11 -0.66 0.67 0c0.01,0 0.01,-0.03 0.04,-0.07 0.1,-0.12 0.19,-0.29 0.25,-0.48 0.07,-0.21 0.11,-0.46 0.11,-0.7 0,-0.34 -0.08,-0.65 -0.26,-0.8l-0.3 -0.25 0.02 -0.39c0.01,-0.12 0.02,-0.24 0.03,-0.4 0.04,-0.35 0.1,-0.88 0.1,-1.5 0,-1.9 -0.61,-4.68 -4.63,-4.68 -4.02,0 -4.63,2.77 -4.63,4.68 0,0.62 0.06,1.15 0.09,1.5 0.02,0.16 0.03,0.29 0.04,0.4l0.02 0.39 -0.3 0.25c-0.18,0.15 -0.26,0.46 -0.26,0.8 0,0.24 0.04,0.48 0.11,0.7 0.06,0.2 0.15,0.37 0.25,0.48 0.04,0.04 0.04,0.07 0.05,0.07l0.67 0 0.11 0.66c0.35,2.14 1.96,3.74 1.97,3.74l0.23 0.23 -0 0.33c0,0.01 -0.02,2.34 -1.29,2.54 -1.12,0.18 -4.13,1.39 -6.35,3.08 -1.01,0.77 -1.83,1.62 -2.16,2.47l22.9 0zm10.91 -2.67l-3.24 3.32 3.24 3.32 -1.13 1.1 -3.21 -3.29 -3.21 3.29 -1.13 -1.1 3.24 -3.32 -3.24 -3.32 1.13 -1.1 3.21 3.29 3.21 -3.29 1.13 1.1zm-12.12 -1.05c1.67,1.28 2.94,2.83 2.94,4.51l0 0.79 -0.79 0 -24.8 0 -0.79 0 0 -0.79c0,-1.69 1.27,-3.24 2.94,-4.51 2.42,-1.85 5.78,-3.18 7.05,-3.38 0.03,-0 0.01,-0.37 -0.01,-0.66 -0.47,-0.53 -1.65,-2 -2.1,-3.89 -0.21,-0.11 -0.4,-0.27 -0.57,-0.46 -0.23,-0.28 -0.42,-0.63 -0.55,-1.02 -0.12,-0.37 -0.19,-0.78 -0.19,-1.18 0,-0.61 0.16,-1.21 0.51,-1.68 -0.04,-0.39 -0.11,-0.99 -0.11,-1.66 0,-2.54 0.82,-6.25 6.2,-6.25 5.39,0 6.2,3.71 6.2,6.25 0,0.67 -0.06,1.27 -0.11,1.66 0.35,0.47 0.51,1.07 0.51,1.68 0,0.4 -0.07,0.8 -0.19,1.18 -0.12,0.39 -0.31,0.75 -0.54,1.02 -0.17,0.19 -0.36,0.36 -0.57,0.46 -0.46,1.89 -1.63,3.36 -2.1,3.89 -0.02,0.29 -0.04,0.66 -0.01,0.66 1.27,0.2 4.63,1.54 7.05,3.38z"/>
 </g>
</svg>
