<?xml version="1.0" encoding="UTF-8"?>
<!DOCTYPE svg PUBLIC "-//W3C//DTD SVG 1.1//EN" "http://www.w3.org/Graphics/SVG/1.1/DTD/svg11.dtd">
<!-- Creator: CorelDRAW -->
<svg xmlns="http://www.w3.org/2000/svg" xml:space="preserve" width="16.5103mm" height="16.5109mm" version="1.1" style="shape-rendering:geometricPrecision; text-rendering:geometricPrecision; image-rendering:optimizeQuality; fill-rule:evenodd; clip-rule:evenodd"
viewBox="0 0 32.51 32.51"
 xmlns:xlink="http://www.w3.org/1999/xlink"
 xmlns:xodm="http://www.corel.com/coreldraw/odm/2003">
 <defs>
  <style type="text/css">
   <![CDATA[
    .fil2 {fill:#2E7D32;fill-rule:nonzero}
    .fil0 {fill:#4CAF50;fill-rule:nonzero}
    .fil1 {fill:white;fill-rule:nonzero}
   ]]>
  </style>
 </defs>
 <g id="Layer_x0020_1">
  <metadata id="CorelCorpID_0Corel-Layer"/>
  <g id="excel.svg">
   <g id="Canvas">
    <g id="ex">
     <g id="Vector">
      <g>
       <path class="fil0" d="M31.6 3.61l-14.45 0 0 25.28 14.45 0c0.5,0 0.9,-0.4 0.9,-0.9l0 -23.48c0,-0.5 -0.4,-0.9 -0.9,-0.9z"/>
      </g>
     </g>
     <g id="Group">
      <g id="Vector_0">
       <g>
        <polygon class="fil1" points="29.8,8.13 23.48,8.13 23.48,10.84 29.8,10.84 "/>
       </g>
      </g>
      <g id="Vector_1">
       <g>
        <polygon class="fil1" points="29.8,17.16 23.48,17.16 23.48,19.87 29.8,19.87 "/>
       </g>
      </g>
      <g id="Vector_2">
       <g>
        <polygon class="fil1" points="29.8,21.67 23.48,21.67 23.48,24.38 29.8,24.38 "/>
       </g>
      </g>
      <g id="Vector_3">
       <g>
        <polygon class="fil1" points="29.8,12.64 23.48,12.64 23.48,15.35 29.8,15.35 "/>
       </g>
      </g>
      <g id="Vector_4">
       <g>
        <polygon class="fil1" points="21.67,8.13 17.16,8.13 17.16,10.84 21.67,10.84 "/>
       </g>
      </g>
      <g id="Vector_5">
       <g>
        <polygon class="fil1" points="21.67,17.16 17.16,17.16 17.16,19.87 21.67,19.87 "/>
       </g>
      </g>
      <g id="Vector_6">
       <g>
        <polygon class="fil1" points="21.67,21.67 17.16,21.67 17.16,24.38 21.67,24.38 "/>
       </g>
      </g>
      <g id="Vector_7">
       <g>
        <polygon class="fil1" points="21.67,12.64 17.16,12.64 17.16,15.35 21.67,15.35 "/>
       </g>
      </g>
     </g>
     <g id="Vector_8">
      <g>
       <polygon class="fil2" points="18.96,32.51 -0,28.9 -0,3.61 18.96,0 "/>
      </g>
     </g>
     <g id="Vector_9">
      <g>
       <path class="fil1" d="M11.85 22.58l-2.18 -4.12c-0.08,-0.15 -0.17,-0.44 -0.26,-0.85l-0.03 0c-0.04,0.19 -0.14,0.49 -0.29,0.88l-2.19 4.08 -3.39 0 4.03 -6.32 -3.69 -6.32 3.46 0 1.81 3.79c0.14,0.3 0.27,0.65 0.38,1.06l0.04 0c0.07,-0.24 0.2,-0.61 0.4,-1.1l2.01 -3.75 3.17 0 -3.79 6.27 3.9 6.37 -3.38 0 0 0z"/>
      </g>
     </g>
    </g>
   </g>
  </g>
 </g>
</svg>
