<?xml version="1.0" encoding="UTF-8"?>
<!DOCTYPE svg PUBLIC "-//W3C//DTD SVG 1.1//EN" "http://www.w3.org/Graphics/SVG/1.1/DTD/svg11.dtd">
<!-- Creator: CorelDRAW -->
<svg xmlns="http://www.w3.org/2000/svg" xml:space="preserve" width="19.7462mm" height="19.7462mm" version="1.1" style="shape-rendering:geometricPrecision; text-rendering:geometricPrecision; image-rendering:optimizeQuality; fill-rule:evenodd; clip-rule:evenodd"
viewBox="0 0 368.82 368.82"
 xmlns:xlink="http://www.w3.org/1999/xlink"
 xmlns:xodm="http://www.corel.com/coreldraw/odm/2003">
 <defs>
  <style type="text/css">
   <![CDATA[
    .fil0 {fill:black}
   ]]>
  </style>
 </defs>
 <g id="Capa_x0020_1">
  <metadata id="CorelCorpID_0Corel-Layer"/>
  <path class="fil0" d="M299.19 309.7l24.53 49.03c0.48,0.97 0.74,2.03 0.74,3.11 0,3.85 -3.12,6.97 -6.97,6.97l-266.17 -0c-3.83,-0.04 -6.91,-3.15 -6.91,-6.97 0,-1.07 0.25,-2.14 0.73,-3.1l24.5 -49.07 -40.49 -0.01c-16.08,-0 -29.15,-13.06 -29.15,-29.15l0 -133.08c0,-16.08 13.06,-29.15 29.14,-29.15l52.18 0 0 -111.33c0,-3.85 3.12,-6.96 6.97,-6.96l192.23 0c3.84,0 6.97,3.12 6.97,6.96l0 111.33 52.18 0c16.09,0 29.14,13.07 29.14,29.15l0 133.07c0,16.09 -13.04,29.19 -29.14,29.19l-40.49 -0zm-203.93 -295.77l0 104.36 178.3 0 0 -104.36 -178.3 0zm210.96 340.96l-30 -59.99 -183.62 0 -30 59.99 243.62 0zm-210.96 -73.96l178.32 0.03 0 -30c0,-8.4 -6.82,-15.22 -15.22,-15.22l-147.91 -0c-8.4,0 -15.2,6.84 -15.2,15.23l0 29.97zm259.62 -0.04l0 -89.5 -340.96 0 0.01 89.13c0,8.39 6.81,15.22 15.21,15.22l47.44 -0 4.73 -9.46 0 -35.32c0,-16.09 13.06,-29.15 29.15,-29.15l147.92 0c16.08,0 29.12,13.08 29.12,29.15l0 35.29 4.73 9.46 47.45 -0c8.27,0 14.99,-6.61 15.21,-14.82zm0.01 -103.47l0 -29.98c0,-8.4 -6.82,-15.22 -15.22,-15.22l-310.53 0c-8.4,0 -15.22,6.83 -15.22,15.22l0 29.98 340.96 0zm-22.57 -29.55c3.76,0.14 6.73,3.22 6.73,6.97 0,3.75 -2.97,6.82 -6.74,6.97l-18.08 0c-3.77,-0.14 -6.74,-3.22 -6.74,-6.97 0,-3.75 2.97,-6.83 6.74,-6.97l18.09 0zm-44.41 0c0.07,0 0.14,-0 0.21,-0 3.85,0 6.97,3.12 6.97,6.97 0,3.85 -3.12,6.97 -6.97,6.97 -0.07,0 -0.14,-0 -0.21,-0l-18.01 0c-0.07,0 -0.14,0 -0.2,0 -3.85,0 -6.97,-3.12 -6.97,-6.97 0,-3.85 3.12,-6.97 6.97,-6.97 0.07,0 0.14,0 0.21,0l18.01 0zm-44.33 0c3.76,0.14 6.73,3.22 6.73,6.97 0,3.75 -2.97,6.82 -6.74,6.97l-18.07 0c-3.77,-0.14 -6.74,-3.22 -6.74,-6.97 0,-3.75 2.97,-6.83 6.74,-6.97l18.08 0z"/>
 </g>
</svg>
