<svg width="341" height="71" viewBox="0 0 341 71" version="1.1" xmlns="http://www.w3.org/2000/svg" xmlns:xlink="http://www.w3.org/1999/xlink">
<title>Group</title>
<desc>Created using Figma</desc>
<g id="Canvas" transform="translate(1631 -1628)">
<g id="Group">
<g id="Vector 2">
<use xlink:href="#path0_fill" transform="translate(-1465 1628)" fill="#FFF25C"/>
</g>
<g id="Vector">
<use xlink:href="#path1_fill" transform="translate(-1630.08 1639.96)"/>
<use xlink:href="#path2_fill" transform="translate(-1630.08 1639.96)"/>
<use xlink:href="#path3_fill" transform="translate(-1630.08 1639.96)"/>
<use xlink:href="#path4_fill" transform="translate(-1630.08 1639.96)"/>
<use xlink:href="#path5_fill" transform="translate(-1630.08 1639.96)"/>
<use xlink:href="#path6_fill" transform="translate(-1630.08 1639.96)"/>
<use xlink:href="#path7_fill" transform="translate(-1630.08 1639.96)"/>
<use xlink:href="#path8_fill" transform="translate(-1630.08 1639.96)"/>
<use xlink:href="#path9_fill" transform="translate(-1630.08 1639.96)"/>
<use xlink:href="#path10_fill" transform="translate(-1630.08 1639.96)"/>
<use xlink:href="#path11_fill" transform="translate(-1630.08 1639.96)"/>
<use xlink:href="#path12_fill" transform="translate(-1630.08 1639.96)"/>
</g>
</g>
</g>
<defs>
<path id="path0_fill" d="M 7.43545 71C 3.88468 71 1.46912 67.3847 2.76697 64.0796C 19.2424 22.1234 22.7644 0 44.1374 0L 127.008 0C 154.808 0 157.021 21.343 174.144 64.029C 175.474 67.3438 173.058 71 169.486 71L 7.43545 71Z"/>
<path id="path1_fill" fill-rule="evenodd" d="M 225.8 5.05751L 255.267 20.6485L 289.442 12.1098L 309.648 29.115L 306.725 32.5348L 288.292 17.0215L 254.68 25.4195L 226.528 10.5244L 203.915 31.532L 194.94 48.1437L 190.957 46.0248L 200.284 28.7629L 225.8 5.05751Z"/>
<path id="path2_fill" d="M 209.556 29.1313C 209.556 32.8728 206.521 35.906 202.777 35.906C 199.033 35.906 195.999 32.8728 195.999 29.1313C 195.999 25.3897 199.033 22.3566 202.777 22.3566C 206.521 22.3566 209.556 25.3897 209.556 29.1313Z"/>
<path id="path3_fill" d="M 233.282 6.77471C 233.282 10.5163 230.247 13.5494 226.503 13.5494C 222.759 13.5494 219.724 10.5163 219.724 6.77471C 219.724 3.03314 222.759 0 226.503 0C 230.247 0 233.282 3.03314 233.282 6.77471Z"/>
<path id="path4_fill" d="M 263.786 22.3565C 263.786 26.0981 260.751 29.1312 257.007 29.1312C 253.263 29.1312 250.228 26.0981 250.228 22.3565C 250.228 18.6149 253.263 15.5818 257.007 15.5818C 260.751 15.5818 263.786 18.6149 263.786 22.3565Z"/>
<path id="path5_fill" d="M 295.646 13.5494C 295.646 17.2909 292.611 20.3241 288.867 20.3241C 285.123 20.3241 282.088 17.2909 282.088 13.5494C 282.088 9.80781 285.123 6.77467 288.867 6.77467C 292.611 6.77467 295.646 9.80781 295.646 13.5494Z"/>
<path id="path6_fill" d="M 12.48 42.5221C 10.176 42.5221 8.128 42.2341 6.336 41.6581C 4.544 41.0821 2.864 40.1061 1.296 38.7301C 0.432 37.9621 0 37.1141 0 36.1861C 0 35.4501 0.272 34.8101 0.816 34.2661C 1.36 33.6901 2.016 33.4021 2.784 33.4021C 3.392 33.4021 3.936 33.5941 4.416 33.9781C 5.696 35.0341 6.944 35.8021 8.16 36.2821C 9.376 36.7621 10.816 37.0021 12.48 37.0021C 14.272 37.0021 15.808 36.6021 17.088 35.8021C 18.4 35.0021 19.056 34.0101 19.056 32.8261C 19.056 31.3861 18.416 30.2661 17.136 29.4661C 15.856 28.6341 13.824 28.0101 11.04 27.5941C 4.032 26.5701 0.528 23.3061 0.528 17.8021C 0.528 15.7861 1.056 14.0421 2.112 12.5701C 3.168 11.0661 4.608 9.93011 6.432 9.16211C 8.256 8.36211 10.288 7.96212 12.528 7.96212C 14.544 7.96212 16.432 8.26611 18.192 8.87411C 19.984 9.48211 21.472 10.2821 22.656 11.2741C 23.584 12.0101 24.048 12.8581 24.048 13.8181C 24.048 14.5541 23.776 15.2101 23.232 15.7861C 22.688 16.3301 22.048 16.6021 21.312 16.6021C 20.832 16.6021 20.4 16.4581 20.016 16.1701C 19.184 15.4981 18.016 14.8901 16.512 14.3461C 15.04 13.7701 13.712 13.4821 12.528 13.4821C 10.512 13.4821 8.944 13.8661 7.824 14.6341C 6.736 15.3701 6.192 16.3461 6.192 17.5621C 6.192 18.9381 6.752 19.9781 7.872 20.6821C 9.024 21.3861 10.816 21.9621 13.248 22.4101C 16 22.8901 18.192 23.5141 19.824 24.2821C 21.488 25.0181 22.736 26.0421 23.568 27.3541C 24.4 28.6341 24.816 30.3461 24.816 32.4901C 24.816 34.5061 24.24 36.2821 23.088 37.8181C 21.968 39.3221 20.464 40.4901 18.576 41.3221C 16.688 42.1221 14.656 42.5221 12.48 42.5221Z"/>
<path id="path7_fill" d="M 35.2646 39.1141C 35.2646 39.9461 34.9926 40.6501 34.4486 41.2261C 33.9046 41.7701 33.2166 42.0421 32.3846 42.0421C 31.5526 42.0421 30.8646 41.7701 30.3206 41.2261C 29.7766 40.6501 29.5046 39.9461 29.5046 39.1141L 29.5046 19.2901C 29.5046 18.4581 29.7766 17.7701 30.3206 17.2261C 30.8646 16.6501 31.5526 16.3621 32.3846 16.3621C 33.2166 16.3621 33.9046 16.6501 34.4486 17.2261C 34.9926 17.7701 35.2646 18.4581 35.2646 19.2901L 35.2646 39.1141ZM 32.3366 13.2421C 31.2486 13.2421 30.4806 13.0661 30.0326 12.7141C 29.5846 12.3621 29.3606 11.7381 29.3606 10.8421L 29.3606 9.93011C 29.3606 9.03411 29.6006 8.41011 30.0806 8.05811C 30.5606 7.70611 31.3286 7.53012 32.3846 7.53012C 33.5046 7.53012 34.2886 7.70611 34.7366 8.05811C 35.1846 8.41011 35.4086 9.03411 35.4086 9.93011L 35.4086 10.8421C 35.4086 11.7701 35.1686 12.4101 34.6886 12.7621C 34.2406 13.0821 33.4566 13.2421 32.3366 13.2421Z"/>
<path id="path8_fill" d="M 52.3684 15.8821C 55.0884 15.8821 57.2804 16.3141 58.9444 17.1781C 60.6084 18.0101 61.4404 19.1301 61.4404 20.5381C 61.4404 21.2421 61.2324 21.8661 60.8164 22.4101C 60.4004 22.9221 59.8564 23.1781 59.1844 23.1781C 58.6724 23.1781 58.2564 23.1141 57.9364 22.9861C 57.6164 22.8261 57.2964 22.6341 56.9764 22.4101C 56.6884 22.1541 56.4004 21.9461 56.1124 21.7861C 55.7924 21.6261 55.3124 21.4821 54.6724 21.3541C 54.0644 21.2261 53.5684 21.1621 53.1844 21.1621C 50.7844 21.1621 48.8964 21.9141 47.5204 23.4181C 46.1764 24.8901 45.5044 26.8261 45.5044 29.2261C 45.5044 31.5301 46.1924 33.4501 47.5684 34.9861C 48.9444 36.4901 50.7044 37.2421 52.8484 37.2421C 54.4164 37.2421 55.5844 37.0501 56.3524 36.6661C 56.5444 36.5701 56.8004 36.4101 57.1204 36.1861C 57.4724 35.9301 57.7924 35.7381 58.0804 35.6101C 58.3684 35.4821 58.7204 35.4181 59.1364 35.4181C 59.9364 35.4181 60.5604 35.6741 61.0084 36.1861C 61.4884 36.6981 61.7284 37.3541 61.7284 38.1541C 61.7284 38.9221 61.2804 39.6421 60.3844 40.3141C 59.4884 40.9861 58.3044 41.5301 56.8324 41.9461C 55.3604 42.3301 53.7924 42.5221 52.1284 42.5221C 49.6644 42.5221 47.4884 41.9461 45.6004 40.7941C 43.7444 39.6421 42.3044 38.0581 41.2804 36.0421C 40.2564 33.9941 39.7444 31.7221 39.7444 29.2261C 39.7444 26.6341 40.2724 24.3301 41.3284 22.3141C 42.4164 20.2981 43.9204 18.7301 45.8404 17.6101C 47.7604 16.4581 49.9364 15.8821 52.3684 15.8821Z"/>
<path id="path9_fill" d="M 86.9944 8.44211C 87.8584 8.44211 88.5624 8.69811 89.1064 9.21011C 89.6504 9.72211 89.9224 10.3941 89.9224 11.2261C 89.9224 12.0581 89.6504 12.7301 89.1064 13.2421C 88.5624 13.7221 87.8584 13.9621 86.9944 13.9621L 79.4584 13.9621L 79.4584 39.1141C 79.4584 39.9461 79.1544 40.6501 78.5464 41.2261C 77.9384 41.7701 77.1864 42.0421 76.2904 42.0421C 75.3944 42.0421 74.6584 41.7701 74.0824 41.2261C 73.5064 40.6501 73.2184 39.9461 73.2184 39.1141L 73.2184 13.9621L 65.6824 13.9621C 64.8184 13.9621 64.1144 13.7061 63.5704 13.1941C 63.0264 12.6821 62.7544 12.0101 62.7544 11.1781C 62.7544 10.3781 63.0264 9.72211 63.5704 9.21011C 64.1464 8.69811 64.8504 8.44211 65.6824 8.44211L 86.9944 8.44211Z"/>
<path id="path10_fill" d="M 110.484 15.8821C 111.316 15.8821 112.004 16.1541 112.548 16.6981C 113.092 17.2421 113.364 17.9461 113.364 18.8101L 113.364 39.1141C 113.364 39.9461 113.092 40.6501 112.548 41.2261C 112.004 41.7701 111.316 42.0421 110.484 42.0421C 109.652 42.0421 108.964 41.7701 108.42 41.2261C 107.908 40.6821 107.636 39.9941 107.604 39.1621C 106.804 40.0901 105.716 40.8901 104.34 41.5621C 102.996 42.2021 101.572 42.5221 100.068 42.5221C 97.86 42.5221 95.86 41.9621 94.068 40.8421C 92.276 39.6901 90.852 38.1061 89.796 36.0901C 88.772 34.0741 88.26 31.7861 88.26 29.2261C 88.26 26.6661 88.772 24.3781 89.796 22.3621C 90.82 20.3141 92.212 18.7301 93.972 17.6101C 95.764 16.4581 97.732 15.8821 99.876 15.8821C 101.412 15.8821 102.852 16.1701 104.196 16.7461C 105.54 17.2901 106.676 17.9941 107.604 18.8581L 107.604 18.8101C 107.604 17.9781 107.876 17.2901 108.42 16.7461C 108.964 16.1701 109.652 15.8821 110.484 15.8821ZM 100.788 37.2421C 102.868 37.2421 104.564 36.4901 105.876 34.9861C 107.188 33.4501 107.844 31.5301 107.844 29.2261C 107.844 26.9221 107.188 25.0021 105.876 23.4661C 104.564 21.9301 102.868 21.1621 100.788 21.1621C 98.74 21.1621 97.06 21.9301 95.748 23.4661C 94.436 25.0021 93.78 26.9221 93.78 29.2261C 93.78 31.5301 94.42 33.4501 95.7 34.9861C 97.012 36.4901 98.708 37.2421 100.788 37.2421Z"/>
<path id="path11_fill" d="M 138.518 37.4821C 138.934 37.9941 139.142 38.5701 139.142 39.2101C 139.142 40.0101 138.838 40.6981 138.23 41.2741C 137.622 41.8501 136.95 42.1381 136.214 42.1381C 135.286 42.1381 134.502 41.7221 133.862 40.8901L 128.102 33.7381L 122.486 40.8901C 122.198 41.2741 121.846 41.5781 121.43 41.8021C 121.046 41.9941 120.63 42.0901 120.182 42.0901C 119.51 42.0901 118.87 41.8341 118.262 41.3221C 117.654 40.8101 117.35 40.2181 117.35 39.5461C 117.35 38.9061 117.59 38.2981 118.07 37.7221L 124.742 29.5621L 117.83 20.9701C 117.414 20.4581 117.206 19.8821 117.206 19.2421C 117.206 18.4421 117.494 17.7701 118.07 17.2261C 118.678 16.6501 119.366 16.3621 120.134 16.3621C 121.062 16.3621 121.846 16.7621 122.486 17.5621L 128.39 24.9061L 133.862 17.6581C 134.47 16.7941 135.238 16.3621 136.166 16.3621C 136.934 16.3621 137.574 16.6341 138.086 17.1781C 138.63 17.6901 138.902 18.2821 138.902 18.9541C 138.902 19.6581 138.678 20.2821 138.23 20.8261L 131.606 28.8901L 138.518 37.4821Z"/>
<path id="path12_fill" d="M 148.421 39.1141C 148.421 39.9461 148.149 40.6501 147.605 41.2261C 147.061 41.7701 146.373 42.0421 145.541 42.0421C 144.709 42.0421 144.021 41.7701 143.477 41.2261C 142.933 40.6501 142.661 39.9461 142.661 39.1141L 142.661 19.2901C 142.661 18.4581 142.933 17.7701 143.477 17.2261C 144.021 16.6501 144.709 16.3621 145.541 16.3621C 146.373 16.3621 147.061 16.6501 147.605 17.2261C 148.149 17.7701 148.421 18.4581 148.421 19.2901L 148.421 39.1141ZM 145.493 13.2421C 144.405 13.2421 143.637 13.0661 143.189 12.7141C 142.741 12.3621 142.517 11.7381 142.517 10.8421L 142.517 9.93011C 142.517 9.03411 142.757 8.41011 143.237 8.05811C 143.717 7.70611 144.485 7.53012 145.541 7.53012C 146.661 7.53012 147.445 7.70611 147.893 8.05811C 148.341 8.41011 148.565 9.03411 148.565 9.93011L 148.565 10.8421C 148.565 11.7701 148.325 12.4101 147.845 12.7621C 147.397 13.0821 146.613 13.2421 145.493 13.2421Z"/>
</defs>
</svg>
