<?xml version="1.0" encoding="UTF-8"?>
<!DOCTYPE svg PUBLIC "-//W3C//DTD SVG 1.1//EN" "http://www.w3.org/Graphics/SVG/1.1/DTD/svg11.dtd">
<!-- Creator: CorelDRAW -->
<svg xmlns="http://www.w3.org/2000/svg" xml:space="preserve" width="13.2083mm" height="10.8124mm" version="1.1" style="shape-rendering:geometricPrecision; text-rendering:geometricPrecision; image-rendering:optimizeQuality; fill-rule:evenodd; clip-rule:evenodd"
viewBox="0 0 16.96 13.88"
 xmlns:xlink="http://www.w3.org/1999/xlink"
 xmlns:xodm="http://www.corel.com/coreldraw/odm/2003">
 <defs>
  <style type="text/css">
   <![CDATA[
    .fil0 {fill:black;fill-rule:nonzero}
    .fil1 {fill:#8DD7F7;fill-rule:nonzero}
   ]]>
  </style>
 </defs>
 <g id="Layer_x0020_1">
  <metadata id="CorelCorpID_0Corel-Layer"/>
  <g id="_1677927807168">
   <path id="_287787408" class="fil0" d="M2.94 0.69c-0.12,0.12 -0.56,0.52 -0.67,0.64 -0.11,0.12 -0.22,0.25 -0.32,0.38 -0.14,0.17 -0.27,0.35 -0.39,0.53 -0.1,0.15 -0.2,0.3 -0.29,0.46 -1.15,1.93 -1.52,4.19 -1.07,6.39 0.05,0.21 0.1,0.42 0.16,0.63 0.06,0.19 0.12,0.38 0.18,0.56 0.06,0.15 0.12,0.3 0.18,0.45 0.09,0.22 0.19,0.43 0.31,0.64 0.09,0.16 0.18,0.32 0.27,0.48 0.11,0.18 0.22,0.35 0.34,0.51 0.08,0.11 0.15,0.21 0.24,0.32 0.09,0.12 0.19,0.24 0.29,0.35l0.56 -0.48c-0.13,-0.15 -0.24,-0.29 -0.36,-0.45 -0.11,-0.15 -0.22,-0.31 -0.32,-0.46 -0.1,-0.16 -0.2,-0.32 -0.29,-0.48 -0.1,-0.18 -0.19,-0.36 -0.27,-0.54 -0.07,-0.15 -0.13,-0.3 -0.19,-0.46 -0.9,-2.36 -0.66,-4.97 0.64,-7.13 0.1,-0.16 0.2,-0.31 0.3,-0.46 0.11,-0.15 0.22,-0.3 0.34,-0.44 0.13,-0.16 0.26,-0.31 0.4,-0.46 0.02,-0.03 0.46,-0.45 0.48,-0.47l-0.14 2.38 0.59 0.16 0.38 -3.74 -3.51 0.1 0.1 0.73 2.09 -0.15 0 0zm11.07 12.51c0.12,-0.12 0.56,-0.52 0.67,-0.64 0.11,-0.12 0.22,-0.25 0.32,-0.38 0.14,-0.17 0.27,-0.35 0.39,-0.53 0.1,-0.15 0.2,-0.3 0.29,-0.46 1.15,-1.93 1.52,-4.19 1.07,-6.39 -0.05,-0.21 -0.1,-0.42 -0.16,-0.63 -0.06,-0.19 -0.12,-0.38 -0.18,-0.56 -0.06,-0.15 -0.12,-0.3 -0.18,-0.45 -0.09,-0.22 -0.19,-0.43 -0.31,-0.64 -0.09,-0.16 -0.18,-0.32 -0.27,-0.48 -0.11,-0.18 -0.22,-0.34 -0.34,-0.51 -0.08,-0.11 -0.15,-0.21 -0.24,-0.32 -0.09,-0.12 -0.19,-0.24 -0.29,-0.35l-0.56 0.48c0.13,0.15 0.24,0.29 0.36,0.45 0.11,0.15 0.22,0.31 0.32,0.46 0.1,0.16 0.2,0.32 0.29,0.48 0.1,0.18 0.19,0.36 0.27,0.54 0.07,0.15 0.13,0.3 0.19,0.46 0.9,2.36 0.66,4.97 -0.64,7.13 -0.1,0.16 -0.2,0.31 -0.3,0.46 -0.11,0.15 -0.22,0.3 -0.34,0.44 -0.13,0.16 -0.26,0.31 -0.4,0.46 -0.02,0.03 -0.46,0.45 -0.48,0.47l0.14 -2.38 -0.59 -0.16 -0.38 3.74 3.51 -0.1 -0.1 -0.73 -2.09 0.15 0 0zm-10.11 -6.41l2.47 2.47 6.35 -6.35 0.52 0.52 -6.61 6.61 -0.26 0.26 -0.26 -0.26 -2.73 -2.73 0.52 -0.52z"/>
   <polygon id="_287787408_0" class="fil1" points="3.91,6.79 6.38,9.26 12.73,2.91 13.25,3.44 6.64,10.04 6.38,10.31 6.12,10.04 3.39,7.31 "/>
  </g>
 </g>
</svg>
