<?xml version="1.0" encoding="UTF-8"?>
<!DOCTYPE svg PUBLIC "-//W3C//DTD SVG 1.1//EN" "http://www.w3.org/Graphics/SVG/1.1/DTD/svg11.dtd">
<!-- Creator: CorelDRAW -->
<svg xmlns="http://www.w3.org/2000/svg" xml:space="preserve" width="15.2244mm" height="13.3228mm" version="1.1" style="shape-rendering:geometricPrecision; text-rendering:geometricPrecision; image-rendering:optimizeQuality; fill-rule:evenodd; clip-rule:evenodd"
viewBox="0 0 483.67 423.26"
 xmlns:xlink="http://www.w3.org/1999/xlink"
 xmlns:xodm="http://www.corel.com/coreldraw/odm/2003">
 <defs>
  <style type="text/css">
   <![CDATA[
    .fil0 {fill:black}
   ]]>
  </style>
 </defs>
 <g id="Layer_x0020_1">
  <metadata id="CorelCorpID_0Corel-Layer"/>
  <path class="fil0" d="M483.67 71.67c0,6.64 -2.08,12.78 -5.65,17.79 -9.51,14.22 -22.41,24.54 -35.3,35.35 -2.64,2.56 -4.32,6.03 -4.54,9.95 -1.44,65.33 -25.64,140.04 -68.75,189.42 -51.57,59.03 -121.86,99.08 -203.18,99.08 -8.34,0 -15.11,-6.78 -15.11,-15.12 0,-8.35 6.78,-15.11 15.11,-15.11 149.78,0 231.39,-130.93 240.9,-242.71 0.44,-1.56 0.71,-3.57 0.71,-6.44 0,-0.95 0.02,-1.9 0.07,-2.83 0.75,-13.04 6.58,-24.71 15.52,-33.08 0.44,-0.43 0.78,-0.81 1.11,-1.2 10.92,-10.74 20.98,-23.3 28.78,-35.1 -11.07,4.97 -22.75,8.73 -34.88,11.27 -2.03,0 -3.74,-1.71 -3.74,-3.78 0,-1.03 0.42,-1.98 1.1,-2.66 0.03,-0.03 -0.1,0.01 -0.12,0.01 11.91,-10.4 21.05,-24 25.97,-39.5 -8,4.78 -16.44,8.9 -25.21,12.37 -5.66,2.26 -11.81,3.56 -18.29,3.56 -10.08,0 -19.46,-3.03 -27.25,-8.24 -0.3,-0.2 -0.61,-0.34 -0.91,-0.52 -12.91,-8.68 -27.98,-13.9 -45.04,-13.9l-1.78 0.32c-37.55,0 -66.08,21.17 -76.74,53.57 -0.3,0.14 -3.35,13.61 -3.66,15.54 -2.83,18.06 -18.45,31.88 -37.32,31.88 -2.05,0 -4.07,-0.17 -6.04,-0.51 -49.57,-9.27 -94.32,-30.71 -127.72,-65.57 -0.2,-0.17 -0.36,-0.22 -0.65,-0.51 -4.42,-4.43 -11.59,-4.43 -16.03,0 -1.03,1.05 -1.83,2.24 -2.39,3.52 -0.13,0.32 -0.22,0.32 -0.32,0.39 -4.03,9.32 -6.98,19.4 -6.98,29.37 0,20.62 8.39,39.45 21,54.41 0,0.02 -0.15,-0.07 -0.09,0 1.11,1.32 1.77,3.02 1.77,4.86 0,4.17 -3.39,7.56 -7.56,7.56 -0.83,0 -1.61,-0.22 -2.35,-0.47 -0.12,-0.05 -0.24,-0.1 -0.36,-0.15 -0.14,0.05 -0.29,0.12 -0.53,0 -1.01,-0.51 -2.15,-0.8 -3.37,-0.8 -4.1,0 -7.42,3.32 -7.53,7.39 3.93,26.9 20.44,50.71 42.72,64.67 -0.29,-0.03 -0.46,-0.03 -0.35,0.03 2.05,1.34 3.42,3.68 3.42,6.32 0,4.17 -3.39,7.56 -7.56,7.56 -0.09,0 -0.17,-0.02 -0.26,-0.02 -0.1,-0.02 -0.18,-0.05 -0.29,-0.06 -0.27,-0.04 -0.52,-0.09 -0.8,-0.12 -2.03,0.1 -3.63,1.71 -3.63,3.74 0,0.6 0.12,1.15 0.37,1.65 6.15,15.32 16.56,28.41 29.66,37.99 0.16,0.12 0.19,0.22 0.37,0.36 1.12,0.8 2.17,1.71 3.19,2.72 10.32,10.32 10.32,27.06 0,37.4 -3.17,3.15 -6.94,5.35 -10.92,6.57 -0.03,0.01 -0.02,0 -0.05,0.01 -15.49,4.91 -31.89,7.76 -49.31,7.76 -2.92,0 -6.17,0 -9.44,0 -2.08,0 -3.78,1.7 -3.78,3.78 0,1.22 0.61,2.24 1.49,2.92 6.22,3.69 12.59,7.3 19.22,10.66l-0.02 0.02c4.45,2.49 7.53,7.2 7.53,12.69 0,8.05 -6.53,14.58 -14.58,14.58 -3.28,0 -6.3,-1.14 -8.74,-2.97 -10.59,-5.54 -20.86,-11.48 -30.62,-17.79 -11.89,-7.69 -16.95,-22.66 -12.16,-36.08 4.34,-12.27 15.78,-18.03 28.44,-18.03 5.63,0.68 16.91,0 22.67,0 11.61,0 21.12,-2.39 32.12,-5.05 -16.51,-14 -29.25,-32.64 -36.15,-54.39 -1.71,-5.41 -1.88,-11.08 -0.61,-16.43 -19.5,-21.28 -33.15,-52.23 -33.15,-82.82 0.15,-7.58 4.98,-13.9 9.92,-19.3 -4.78,-13 -9.92,-26.86 -9.92,-41.16 0,-20.91 8.08,-41.54 18.47,-59.52 5.02,-8.67 16.96,-15.27 26.87,-16.05 9.07,0 17.03,4.98 22.81,12.13 28.51,35.29 73.12,54.25 117.02,65.1 0.75,0.13 1.54,0.24 2.34,0.24 7.2,0 13.17,-5 14.73,-11.75 12.03,-50.81 51.47,-88.45 105.84,-88.45 23,0 45.42,6.94 64.38,19.49 2.95,1.86 6.39,3 10.13,3 1.66,0 3.26,-0.27 4.76,-0.68 8.19,-3.05 16.17,-6.6 23.73,-11.13 4.8,-2.87 10.13,-3.08 15.45,-3.08 6.72,0 13.41,1.06 18.9,5.47 9.85,7.92 13.82,21.15 9.98,33.25 0,0.03 -0.01,0.06 -0.01,0.1 7.95,5.52 13.17,14.78 13.17,25.25l0 0zm-453.44 245.78c-1.19,-0.13 1.19,0 0,0l0 0zm30.23 -294.72c-0.78,0 0.78,-0.07 0,0l0 0zm52.91 362.74c8.34,0 15.12,6.76 15.12,15.12 0,8.34 -6.78,15.11 -15.12,15.11 -8.35,0 -15.11,-6.77 -15.11,-15.11 0,-8.36 6.76,-15.12 15.11,-15.12l0 0z"/>
 </g>
</svg>
