<?xml version="1.0" encoding="UTF-8"?>
<!DOCTYPE svg PUBLIC "-//W3C//DTD SVG 1.1//EN" "http://www.w3.org/Graphics/SVG/1.1/DTD/svg11.dtd">
<!-- Creator: CorelDRAW -->
<svg xmlns="http://www.w3.org/2000/svg" xml:space="preserve" width="18.3916mm" height="17.1796mm" version="1.1" style="shape-rendering:geometricPrecision; text-rendering:geometricPrecision; image-rendering:optimizeQuality; fill-rule:evenodd; clip-rule:evenodd"
viewBox="0 0 428.53 400.29"
 xmlns:xlink="http://www.w3.org/1999/xlink"
 xmlns:xodm="http://www.corel.com/coreldraw/odm/2003">
 <defs>
  <style type="text/css">
   <![CDATA[
    .fil0 {fill:black}
   ]]>
  </style>
 </defs>
 <g id="Layer_x0020_1">
  <metadata id="CorelCorpID_0Corel-Layer"/>
  <path class="fil0" d="M414.4 12.49l-12.44 -12.49 -87.64 87.62 -9.26 -5.59c-27.52,-16.58 -58.99,-25.78 -90.97,-26.52 -82.59,0 -166.6,74.3 -210.83,139.65l-3.26 4.92 3.24 4.84c23.4,33.15 51.61,63.1 83.45,88.52l12.1 9.65 -84.68 84.74 12.42 12.44 87.65 -87.64 9.26 5.57c27.54,16.58 58.99,25.77 90.97,26.53 82.59,0 166.62,-74.3 210.87,-139.7l3.25 -4.92 -3.19 -4.81c-23.35,-33.16 -51.64,-63.13 -83.51,-88.51l-12.14 -9.65 84.71 -84.68zm-200.12 264.39c-17.42,0 -33.51,-5.82 -46.38,-15.6l-1.48 -0.89 -39.84 39.87 16.71 8.72c21.81,11.4 46.05,17.62 70.82,18.17 74.44,0 143.95,-63.43 186.7,-118.51l6.57 -8.47 -6.55 -8.47c-21.46,-27.77 -46.43,-52.86 -74.09,-74.44l-9.65 -7.52 -42.58 42.57 0.82 1.35c9.84,12.91 15.68,29.01 15.68,46.49 0,42.38 -34.35,76.72 -76.72,76.72zm-61.11 -30.33c-9.79,-12.89 -15.62,-28.96 -15.62,-46.4l0.03 -1.95 0 -0.19c0.06,-2.51 0.25,-4.98 0.56,-7.43 4.66,-37.85 36.96,-67.23 76.09,-67.17l0.05 0 1.67 0.03 0.69 0.02 0.22 0c16.44,0.53 31.56,6.26 43.81,15.55l1.42 0.86 39.87 -39.89 -16.71 -8.72c-21.83,-11.4 -46.07,-17.62 -70.84,-18.17 -74.44,0 -143.95,63.44 -186.67,118.54l-6.58 8.45 6.57 8.47c21.44,27.78 46.43,52.84 74.09,74.42l9.64 7.54 42.57 -42.58 -0.84 -1.4zm61.11 -105.2c13.06,0 25.11,4.25 34.87,11.46l-82.22 82.23c-7.21,-9.76 -11.46,-21.83 -11.46,-34.89 0,-32.48 26.33,-58.8 58.81,-58.8zm47.31 23.87c7.22,9.78 11.49,21.86 11.49,34.94 0,32.48 -26.33,58.8 -58.8,58.8 -13.08,0 -25.16,-4.26 -34.94,-11.49l82.25 -82.25z"/>
 </g>
</svg>
