<svg width="10" height="14" viewBox="0 0 10 14" version="1.1" xmlns="http://www.w3.org/2000/svg" xmlns:xlink="http://www.w3.org/1999/xlink">
<title>ico</title>
<desc>Created using Figma</desc>
<g id="Canvas" transform="translate(-645 -948)">
<g id="ico">
<g id="Vector">
<use xlink:href="#path0_fill" transform="translate(645 948)" fill="#FBE9E7"/>
</g>
<g id="Vector">
<use xlink:href="#path1_fill" transform="translate(651.562 948.5)" fill="#FFFFFF"/>
</g>
<g id="Group">
<g id="Vector">
<use xlink:href="#path2_fill" transform="translate(646.812 954.682)" fill="#FF5722"/>
</g>
<g id="Vector">
<use xlink:href="#path3_fill" transform="translate(649.301 954.682)" fill="#FF5722"/>
</g>
<g id="Vector">
<use xlink:href="#path4_fill" transform="translate(651.773 954.682)" fill="#FF5722"/>
</g>
</g>
</g>
</g>
<defs>
<path id="path0_fill" d="M 10 14L 0 14L 0 0L 6.875 0L 10 3.33333L 10 14Z"/>
<path id="path1_fill" d="M 2.96875 3.16667L 0 3.16667L 0 0L 2.96875 3.16667Z"/>
<path id="path2_fill" d="M 0.628125 2.151L 0.628125 3.31767L 5.96046e-08 3.31767L 5.96046e-08 2.95003e-07L 1.05969 2.95003e-07C 1.36719 2.95003e-07 1.61281 0.102 1.79562 0.305333C 1.97844 0.508666 2.07 0.773 2.07 1.09833C 2.07 1.42367 1.97937 1.68 1.79875 1.86867C 1.61812 2.05733 1.36719 2.151 1.04656 2.151L 0.628125 2.151ZM 0.628125 1.59267L 1.05969 1.59267C 1.17937 1.59267 1.27187 1.551 1.3375 1.46733C 1.40312 1.38367 1.43562 1.26233 1.43562 1.10267C 1.43562 0.937 1.40219 0.805333 1.33531 0.707C 1.26844 0.609333 1.17875 0.559667 1.06625 0.558L 0.628125 0.558L 0.628125 1.59267Z"/>
<path id="path3_fill" d="M -1.90735e-08 3.31767L -1.90735e-08 2.95003e-07L 0.8225 2.95003e-07C 1.18562 2.95003e-07 1.47531 0.123 1.69062 0.369C 1.90656 0.615 2.01656 0.952333 2.02094 1.38067L 2.02094 1.91833C 2.02094 2.35433 1.91281 2.69667 1.6975 2.94467C 1.48125 3.19367 1.18406 3.31767 0.805312 3.31767L -1.90735e-08 3.31767ZM 0.627813 0.558333L 0.627813 2.76167L 0.815938 2.76167C 1.02531 2.76167 1.17281 2.70267 1.25813 2.585C 1.34344 2.46733 1.38844 2.26433 1.39281 1.97567L 1.39281 1.39933C 1.39281 1.08933 1.35219 0.873334 1.27094 0.751334C 1.18969 0.629 1.05156 0.564667 0.856562 0.558667L 0.627813 0.558667L 0.627813 0.558333Z"/>
<path id="path4_fill" d="M 1.60437 1.964L 0.628125 1.964L 0.628125 3.31767L 1.04904e-07 3.31767L 1.04904e-07 2.95003e-07L 1.72187 2.95003e-07L 1.72187 0.558333L 0.628125 0.558333L 0.628125 1.40833L 1.60437 1.40833L 1.60437 1.964Z"/>
</defs>
</svg>
