<svg xmlns="http://www.w3.org/2000/svg" viewBox="0 0 30 30" fill="#293642">
    <path d="M 11 4 C 10.448 4 10 4.448 10 5 L 10 22 L 14 22 L 14 5 C 14 4.448 13.552 4 13 4 L 11 4 z M 5 6 C 4.448 6 4 6.448 4 7 L 4 22 L 8 22 L 8 7 C 8 6.448 7.552 6 7 6 L 5 6 z M 23 8 C 22.448 8 22 8.448 22 9 L 22 22 L 26 22 L 26 9 C 26 8.448 25.552 8 25 8 L 23 8 z M 17 10 C 16.448 10 16 10.448 16 11 L 16 22 L 20 22 L 20 11 C 20 10.448 19.552 10 19 10 L 17 10 z M 3 24 A 1.0001 1.0001 0 1 0 3 26 L 27 26 A 1.0001 1.0001 0 1 0 27 24 L 3 24 z"></path>
</svg>