<?xml version="1.0" encoding="UTF-8"?>
<!DOCTYPE svg PUBLIC "-//W3C//DTD SVG 1.1//EN" "http://www.w3.org/Graphics/SVG/1.1/DTD/svg11.dtd">
<!-- Creator: CorelDRAW -->
<svg xmlns="http://www.w3.org/2000/svg" xml:space="preserve" width="20.5884mm" height="13.9915mm" version="1.1" style="shape-rendering:geometricPrecision; text-rendering:geometricPrecision; image-rendering:optimizeQuality; fill-rule:evenodd; clip-rule:evenodd"
viewBox="0 0 494.74 336.22"
 xmlns:xlink="http://www.w3.org/1999/xlink"
 xmlns:xodm="http://www.corel.com/coreldraw/odm/2003">
 <defs>
  <style type="text/css">
   <![CDATA[
    .fil0 {fill:black}
   ]]>
  </style>
 </defs>
 <g id="Layer_x0020_1">
  <metadata id="CorelCorpID_0Corel-Layer"/>
  <path class="fil0" d="M296.83 17.07l0.17 0.04 0.22 0.07c11.18,2.82 19.91,12 22.21,23.52l32.39 161.9c1.79,8.94 -0.54,18.26 -6.32,25.31 -5.79,7.06 -14.45,11.16 -23.58,11.16l-291.41 0c-9.14,0 -17.8,-4.1 -23.59,-11.16 -5.78,-7.06 -8.11,-16.37 -6.32,-25.31l32.38 -161.9c2.3,-11.48 10.97,-20.63 22.3,-23.55l0.47 -0.12 0.02 0 1.05 -0.25c0.8,-0.18 1.59,-0.36 2.38,-0.54 2.91,-0.65 5.82,-1.29 8.74,-1.91 9.79,-2.09 19.63,-4 29.48,-5.76 25.32,-4.51 53.07,-8.57 78.78,-8.57 25.72,0 53.46,4.06 78.78,8.57 9.85,1.75 19.69,3.67 29.48,5.76 2.92,0.62 5.83,1.26 8.74,1.91 0.78,0.18 1.57,0.36 2.36,0.54l1.19 0.27 0.07 0.02zm76.29 37.84l0 16.98 52.32 0 0 52.32 16.98 0 0 -52.32 52.32 0 0 -16.98 -52.32 0 0 -52.32 -16.98 0 0 52.32 -52.32 0zm-79.92 -24.01l-0.03 -0.01 -0.01 -0 -0.14 -0.03 -0.62 -0.14c-0.54,-0.13 -1.32,-0.31 -2.34,-0.53 -2.02,-0.46 -4.94,-1.11 -8.58,-1.88 -7.26,-1.55 -17.42,-3.6 -29.01,-5.67 -22.91,-4.08 -52.42,-8.35 -76.27,-8.35 -23.85,0 -53.36,4.27 -76.27,8.35 -11.58,2.06 -21.74,4.12 -29.01,5.67 -3.63,0.77 -6.55,1.42 -8.58,1.88 -1.01,0.22 -1.79,0.4 -2.33,0.53l-0.62 0.14 -0.14 0.03 -0.04 0.01 -0.05 0.01 -0 0 -0.01 0 -0.01 0 -0.02 0.01 -0.02 0 -0.01 0 -0.02 0 -0.01 0 -0.02 0 -0.02 0 -0.01 0 -0.02 0 -0.01 0.01 -0.02 0 -0.01 0 -0.01 0 -0.01 0 -0.04 0.01 -0 0 -0.03 0.01c-6.01,1.55 -10.62,6.4 -11.84,12.5l-32.38 161.9c-0.94,4.76 0.28,9.69 3.36,13.44 3.07,3.75 7.67,5.93 12.53,5.93l291.41 0c4.85,0 9.44,-2.18 12.52,-5.93 3.07,-3.75 4.3,-8.68 3.35,-13.44l-32.38 -161.9c-1.22,-6.13 -5.86,-10.99 -11.9,-12.52l-0.02 -0.01 -0.03 -0.01 -0.04 -0.01 -0.04 -0.01 -0.05 -0.01 -0.04 -0.01 -0.03 -0.01 -0.02 -0 -0.04 -0.01zm-36.04 96.72c0,-17.88 -14.5,-32.38 -32.38,-32.38 -17.89,0 -32.38,14.5 -32.38,32.38 0,17.89 14.49,32.38 32.38,32.38 -14.24,0 -27.65,2.62 -40.7,9.01 -11.03,5.4 -21.19,13.2 -31.09,23.37l-102.73 0 26.44 -132.19c0.32,-0.07 0.65,-0.14 0.98,-0.2 7,-1.5 16.79,-3.48 27.94,-5.46 12.03,-2.14 25.37,-4.23 38.35,-5.71 1.05,7.94 7.84,14.06 16.05,14.06l32.39 0c8.22,0 15.01,-6.12 16.05,-14.06 12.98,1.49 26.32,3.57 38.35,5.71 11.15,1.99 20.94,3.97 27.95,5.46 0.33,0.07 0.66,0.14 0.98,0.2l26.44 132.19 -5.59 0c-9.9,-10.17 -20.07,-17.97 -31.1,-23.37 -13.04,-6.39 -26.46,-9.01 -40.7,-9.01 17.88,0 32.38,-14.49 32.38,-32.38zm48.57 161.9c0,-17.89 -14.5,-32.38 -32.38,-32.38 -17.89,0 -32.38,14.5 -32.38,32.38 0,17.88 14.49,32.38 32.38,32.38 17.88,0 32.38,-14.5 32.38,-32.38zm-194.28 0c0,-17.89 -14.49,-32.38 -32.38,-32.38 -17.88,0 -32.38,14.5 -32.38,32.38 0,17.88 14.5,32.38 32.38,32.38 17.89,0 32.38,-14.5 32.38,-32.38zm208.59 0c0,25.78 -20.91,46.69 -46.69,46.69 -25.78,0 -46.69,-20.91 -46.69,-46.69 0,-25.78 20.9,-46.69 46.69,-46.69 25.78,0 46.69,20.91 46.69,46.69zm-194.28 0c0,25.78 -20.91,46.69 -46.69,46.69 -25.77,0 -46.68,-20.91 -46.68,-46.69 0,-25.78 20.9,-46.69 46.68,-46.69 25.78,0 46.69,20.91 46.69,46.69zm9.39 -225.2c-9.04,1.22 -18.06,2.67 -27.02,4.27 -6.43,1.15 -12.86,2.37 -19.26,3.67l-21.17 105.81 79.4 0c9.15,-8.73 19.26,-16.32 30.69,-21.92 2.54,-1.24 5.09,-2.36 7.67,-3.37 -4.66,-7.26 -7.36,-15.9 -7.36,-25.17 0,-25.78 20.91,-46.68 46.69,-46.68 25.78,0 46.68,20.91 46.68,46.68 0,9.27 -2.7,17.91 -7.36,25.17 2.58,1.01 5.13,2.13 7.67,3.37 3.32,1.63 6.53,3.42 9.64,5.36l-17.85 -89.25c-6.4,-1.3 -12.83,-2.52 -19.26,-3.67 -8.97,-1.6 -17.98,-3.05 -27.02,-4.27 -5.56,7.82 -14.7,12.84 -24.87,12.84l-32.39 0c-10.17,0 -19.31,-5.02 -24.87,-12.84z"/>
 </g>
</svg>
