<?xml version="1.0" encoding="UTF-8"?>
<!DOCTYPE svg PUBLIC "-//W3C//DTD SVG 1.1//EN" "http://www.w3.org/Graphics/SVG/1.1/DTD/svg11.dtd">
<!-- Creator: CorelDRAW -->
<svg xmlns="http://www.w3.org/2000/svg" xml:space="preserve" width="19.5076mm" height="19.5051mm" version="1.1" style="shape-rendering:geometricPrecision; text-rendering:geometricPrecision; image-rendering:optimizeQuality; fill-rule:evenodd; clip-rule:evenodd"
viewBox="0 0 40.72 40.72"
 xmlns:xlink="http://www.w3.org/1999/xlink"
 xmlns:xodm="http://www.corel.com/coreldraw/odm/2003">
 <defs>
  <style type="text/css">
   <![CDATA[
    .fil0 {fill:black;fill-rule:nonzero}
   ]]>
  </style>
 </defs>
 <g id="Layer_x0020_1">
  <metadata id="CorelCorpID_0Corel-Layer"/>
  <path class="fil0" d="M17.81 35.63c-9.84,-0 -17.81,-7.98 -17.81,-17.81 0,-9.84 7.98,-17.81 17.81,-17.81 9.84,0 17.81,7.98 17.81,17.81 0,3.3 -0.9,6.4 -2.47,9.05l7.31 7.31c0.16,0.16 0.25,0.38 0.25,0.6 0,0.23 -0.09,0.44 -0.25,0.6l-5.09 5.09c-0.16,0.16 -0.37,0.25 -0.6,0.25 -0,0 -0,0 -0.01,0 -0,0 -0,0 -0,0 -0.22,0 -0.44,-0.09 -0.6,-0.25l-7.31 -7.31c-2.65,1.57 -5.75,2.47 -9.05,2.47l0 0zm3.39 -16.97l1.7 0 0 -2.55 -1.7 0 0 2.55zm5.09 0l-1.7 0 0 -2.9c0,-0.01 0,-0.01 0,-0.02 0,-1.3 -0.98,-2.39 -2.27,-2.53l-4.59 -0.49 -4.45 0.5c-1.29,0.14 -2.26,1.23 -2.26,2.53 0,0.01 0,0.01 0,0.02l0 2.89 -1.7 0 -0 -2.9c0,-0.01 0,-0.02 0,-0.03 0,-2.16 1.63,-3.98 3.77,-4.22l1.79 -0.2c-0.81,-0.93 -1.32,-2.24 -1.32,-3.69 -0.01,-0.09 -0.01,-0.19 -0.01,-0.28 0,-2.19 1.78,-3.97 3.97,-3.97 0.09,0 0.19,0 0.28,0.01 0.09,-0.01 0.19,-0.01 0.28,-0.01 2.19,0 3.97,1.78 3.97,3.97 0,0.09 -0,0.19 -0.01,0.28 0,1.46 -0.51,2.78 -1.33,3.7l1.8 0.2c2.15,0.24 3.77,2.05 3.77,4.22 0,0.01 0,0.02 0,0.03l0 2.88zm-13.57 0l1.7 0 0 -2.55 -1.7 0 0 2.55zm4.92 -7.64l0.08 -0.01 0 0.01 0.09 0c1.4,0 2.55,-1.52 2.55,-3.39 0.01,-0.08 0.01,-0.17 0.01,-0.25 0,-1.27 -1.03,-2.31 -2.31,-2.31 -0.08,0 -0.17,0.01 -0.25,0.01 -0.08,-0.01 -0.17,-0.01 -0.25,-0.01 -1.27,0 -2.31,1.03 -2.31,2.31 0,0.08 0,0.17 0.01,0.25 0,1.8 1.05,3.27 2.37,3.38zm11.27 18.48c-0.2,-0.08 -0.42,-0.13 -0.64,-0.15l-4.59 -0.51 -4.45 0.5c-1.29,0.14 -2.26,1.23 -2.26,2.53 0,0.01 0,0.01 0,0.02l0 2.02c0.28,0.01 0.56,0.02 0.85,0.02 4.3,0 8.2,-1.68 11.09,-4.43zm-2.25 -2.05l1.8 0.2c0.59,0.07 1.16,0.25 1.67,0.55 2.37,-2.81 3.8,-6.43 3.8,-10.39 0,-8.9 -7.22,-16.12 -16.12,-16.12 -8.9,0 -16.12,7.22 -16.12,16.12 0,3.96 1.43,7.59 3.81,10.4 0.51,-0.3 1.08,-0.48 1.67,-0.55l1.81 -0.2c-0.83,-0.93 -1.34,-2.25 -1.34,-3.71 -0.01,-0.09 -0.01,-0.19 -0.01,-0.28 0,-2.19 1.78,-3.97 3.97,-3.97 0.09,0 0.19,0 0.28,0.01 0.09,-0.01 0.19,-0.01 0.28,-0.01 2.19,0 3.97,1.78 3.97,3.97 0,0.09 -0,0.19 -0.01,0.28 0,2.77 -1.85,5.03 -4.15,5.09l0 0.01 -4.61 0.52c-0.22,0.02 -0.43,0.07 -0.63,0.14 2.31,2.19 5.26,3.7 8.54,4.22l0 -1.85c0,-0.01 0,-0.02 0,-0.03 0,-2.16 1.63,-3.98 3.77,-4.22l1.79 -0.2c-0.81,-0.93 -1.32,-2.24 -1.32,-3.69 -0.01,-0.09 -0.01,-0.19 -0.01,-0.28 0,-2.19 1.78,-3.97 3.97,-3.97 0.09,0 0.19,0 0.28,0.01 0.09,-0.01 0.19,-0.01 0.28,-0.01 2.19,0 3.97,1.78 3.97,3.97 0,0.09 -0,0.19 -0.01,0.28 0,1.46 -0.51,2.78 -1.33,3.7zm-3.08 -0.32l0.08 -0.01 0 0.01 0.09 0c1.4,0 2.55,-1.52 2.55,-3.39 0.01,-0.08 0.01,-0.17 0.01,-0.25 0,-1.27 -1.03,-2.31 -2.31,-2.31 -0.08,0 -0.17,0.01 -0.25,0.01 -0.08,-0.01 -0.17,-0.01 -0.25,-0.01 -1.27,0 -2.31,1.03 -2.31,2.31 0,0.08 0,0.17 0.01,0.25 0,1.8 1.05,3.27 2.37,3.38zm-11.7 -5.93c-0.08,-0.01 -0.17,-0.01 -0.25,-0.01 -1.27,0 -2.31,1.03 -2.31,2.31 0,0.08 0,0.17 0.01,0.25 0,1.87 1.14,3.39 2.55,3.39 1.4,0 2.54,-1.52 2.54,-3.39 0.01,-0.08 0.01,-0.17 0.01,-0.25 0,-1.27 -1.03,-2.31 -2.31,-2.31 -0.08,0 -0.17,0.01 -0.25,0.01l0 0zm20.33 7.11c-1.09,1.49 -2.4,2.8 -3.89,3.89l6.46 6.47 3.89 -3.89 -6.47 -6.46z"/>
 </g>
</svg>
