<?xml version="1.0" encoding="UTF-8"?>
<!DOCTYPE svg PUBLIC "-//W3C//DTD SVG 1.1//EN" "http://www.w3.org/Graphics/SVG/1.1/DTD/svg11.dtd">
<!-- Creator: CorelDRAW -->
<svg xmlns="http://www.w3.org/2000/svg" xml:space="preserve" width="16.2494mm" height="16.2493mm" version="1.1" style="shape-rendering:geometricPrecision; text-rendering:geometricPrecision; image-rendering:optimizeQuality; fill-rule:evenodd; clip-rule:evenodd"
viewBox="0 0 28.35 28.35"
 xmlns:xlink="http://www.w3.org/1999/xlink"
 xmlns:xodm="http://www.corel.com/coreldraw/odm/2003">
 <defs>
  <style type="text/css">
   <![CDATA[
    .fil0 {fill:black}
   ]]>
  </style>
 </defs>
 <g id="Layer_x0020_1">
  <metadata id="CorelCorpID_0Corel-Layer"/>
  <path class="fil0" d="M27.56 24.7l-23.9 0 0 -23.9c0,-0.44 -0.36,-0.8 -0.8,-0.8 -0.44,0 -0.8,0.36 -0.8,0.8l0 3.32 -1.26 0c-0.44,0 -0.8,0.35 -0.8,0.8 0,0.44 0.36,0.8 0.8,0.8l1.26 0 0 4.58 -1.26 0c-0.44,0 -0.8,0.36 -0.8,0.8 0,0.44 0.36,0.8 0.8,0.8l1.26 0 0 3.55 -1.26 0c-0.44,0 -0.8,0.36 -0.8,0.8 0,0.44 0.36,0.8 0.8,0.8l1.26 0 0 8.46c0,0.44 0.36,0.8 0.8,0.8l8.46 0 0 1.26c0,0.44 0.36,0.8 0.8,0.8 0.44,0 0.8,-0.36 0.8,-0.8l-0 -1.26 4.58 0 0 1.26c0,0.44 0.36,0.8 0.8,0.8 0.44,0 0.8,-0.36 0.8,-0.8l0 -1.26 8.46 0c0.44,0 0.8,-0.36 0.8,-0.8 0,-0.44 -0.36,-0.8 -0.8,-0.8zm-21.61 -1.49c0.44,0 0.8,-0.36 0.8,-0.8l0 -10.52 4.58 0 0 10.52c0,0.44 0.36,0.8 0.8,0.8 0.44,0 0.8,-0.36 0.8,-0.8l-0 -5.38 4.58 0 0 5.38c0,0.44 0.36,0.8 0.8,0.8 0.44,0 0.8,-0.36 0.8,-0.8l0 -16.7 4.58 0 0 16.7c0,0.44 0.36,0.8 0.8,0.8 0.44,0 0.8,-0.36 0.8,-0.8l0 -16.76c0,-0.84 -0.69,-1.53 -1.53,-1.53l-4.71 0c-0.84,0 -1.53,0.69 -1.53,1.53l0 9.79 -4.58 0 0 -3.62c0,-0.84 -0.69,-1.53 -1.53,-1.53l-4.71 0c-0.84,0 -1.53,0.69 -1.53,1.53l0 10.59c0,0.44 0.36,0.8 0.8,0.8z"/>
 </g>
</svg>
