<?xml version="1.0" encoding="UTF-8"?>
<!DOCTYPE svg PUBLIC "-//W3C//DTD SVG 1.1//EN" "http://www.w3.org/Graphics/SVG/1.1/DTD/svg11.dtd">
<!-- Creator: CorelDRAW -->
<svg xmlns="http://www.w3.org/2000/svg" xml:space="preserve" width="15.6488mm" height="17.7483mm" version="1.1" style="shape-rendering:geometricPrecision; text-rendering:geometricPrecision; image-rendering:optimizeQuality; fill-rule:evenodd; clip-rule:evenodd"
viewBox="0 0 26.31 29.84"
 xmlns:xlink="http://www.w3.org/1999/xlink"
 xmlns:xodm="http://www.corel.com/coreldraw/odm/2003">
 <defs>
  <style type="text/css">
   <![CDATA[
    .fil0 {fill:black}
   ]]>
  </style>
 </defs>
 <g id="Layer_x0020_1">
  <metadata id="CorelCorpID_0Corel-Layer"/>
  <path class="fil0" d="M25.52 0c0.44,0 0.79,0.36 0.79,0.79l0 15.9c0,5.81 -8.09,10.96 -12.83,13.09 -0.1,0.05 -0.21,0.07 -0.32,0.07 -0.11,0 -0.22,-0.02 -0.33,-0.07 -4.75,-2.13 -12.83,-7.28 -12.83,-13.09l0 -15.9c0,-0.44 0.36,-0.79 0.79,-0.79l24.73 0zm-0.8 1.59l-23.14 0 0 15.1c0,4.93 7.57,9.58 11.57,11.49 4,-1.92 11.57,-6.56 11.57,-11.49l0 -15.1zm-9.17 8.01c0.13,0.4 0.49,0.72 0.94,0.83 0.24,0.06 0.48,0.12 0.72,0.2 0.57,0.17 1.12,0.37 1.65,0.62 1.02,0.45 1.68,1.45 1.7,2.57l0 1.57c0,0.44 -0.36,0.79 -0.79,0.79l-13.25 0c-0.44,0 -0.79,-0.35 -0.79,-0.79l0 -1.57c0.02,-1.12 0.68,-2.12 1.7,-2.56 0.53,-0.25 1.09,-0.46 1.65,-0.63 0.24,-0.07 0.49,-0.14 0.74,-0.2 0.46,-0.09 0.81,-0.43 0.99,-0.77 -0.83,-0.7 -1.33,-1.88 -1.33,-3.16 -0,-0.07 -0.01,-0.14 -0.01,-0.22 0,-1.98 1.6,-3.58 3.76,-3.58 1.98,0 3.58,1.6 3.58,3.58 0,0.08 -0,0.15 -0.01,0.27 0,1.19 -0.47,2.34 -1.26,3.05zm-9.02 9.52c-0.44,0 -0.79,-0.35 -0.79,-0.79 0,-0.44 0.36,-0.79 0.79,-0.79l13.25 -0c0.44,0 0.79,0.36 0.79,0.79 0,0.44 -0.36,0.79 -0.79,0.79l-13.25 -0zm0 2.95c-0.44,0 -0.79,-0.36 -0.79,-0.79 0,-0.44 0.36,-0.79 0.79,-0.79l9.12 0c0.44,0 0.79,0.36 0.79,0.79 0,0.44 -0.35,0.79 -0.79,0.79l-9.12 0zm4.55 -15.58c0,1.19 0.74,2.67 2.08,2.67 1.34,0 2.08,-1.48 2.08,-2.68 0.01,-0.08 0.01,-0.14 0.01,-0.2 0,-1.1 -0.89,-1.99 -2.19,-1.99 -1.1,0 -1.99,0.89 -1.99,1.98 0,0.06 0,0.12 0.01,0.21zm0.99 4.06c-0.16,0.3 -0.37,0.56 -0.62,0.78 0.45,0.31 1.3,0.42 1.71,0.42 0.41,0 1.26,-0.12 1.71,-0.43 -0.25,-0.22 -0.46,-0.48 -0.62,-0.77 -0.35,0.13 -0.72,0.19 -1.09,0.19 -0.37,0 -0.74,-0.06 -1.09,-0.19zm-4.74 4.05l11.65 0 0 -0.77c-0.01,-0.5 -0.32,-0.94 -0.78,-1.14 -0.47,-0.22 -0.95,-0.4 -1.44,-0.54 -0.13,-0.04 -0.27,-0.08 -0.4,-0.11 -0.66,0.96 -2.12,1.31 -3.21,1.31 -1.08,0 -2.55,-0.34 -3.21,-1.3 -0.14,0.04 -0.27,0.07 -0.41,0.11 -0.49,0.14 -0.97,0.32 -1.43,0.54 -0.46,0.2 -0.76,0.64 -0.78,1.13l0 0.77z"/>
 </g>
</svg>
