<?xml version="1.0" encoding="UTF-8"?>
<!DOCTYPE svg PUBLIC "-//W3C//DTD SVG 1.1//EN" "http://www.w3.org/Graphics/SVG/1.1/DTD/svg11.dtd">
<!-- Creator: CorelDRAW -->
<svg xmlns="http://www.w3.org/2000/svg" xml:space="preserve" width="16.8568mm" height="16.3226mm" version="1.1" style="shape-rendering:geometricPrecision; text-rendering:geometricPrecision; image-rendering:optimizeQuality; fill-rule:evenodd; clip-rule:evenodd"
viewBox="0 0 30.49 29.53"
 xmlns:xlink="http://www.w3.org/1999/xlink"
 xmlns:xodm="http://www.corel.com/coreldraw/odm/2003">
 <defs>
  <style type="text/css">
   <![CDATA[
    .fil0 {fill:black}
   ]]>
  </style>
 </defs>
 <g id="Layer_x0020_1">
  <metadata id="CorelCorpID_0Corel-Layer"/>
  <path class="fil0" d="M29.23 0.51c-0.48,-0.33 -1.06,-0.51 -1.65,-0.51 -0.35,0 -0.71,0.07 -1.04,0.19l-17.58 6.71 -0.11 -0.04c-0.09,-0.03 -0.18,-0.05 -0.27,-0.05l-5.86 0c-1.51,0 -2.73,1.22 -2.73,2.73l0 6.14c0,1.28 0.89,2.39 2.14,2.66l0.21 0.05 1.4 9c0.21,1.24 1.29,2.14 2.6,2.14l1.48 0c0.78,0 1.52,-0.34 2.04,-0.93 0.38,-0.44 0.59,-0.99 0.59,-1.57 0,-0.13 -0.01,-0.26 -0.03,-0.4l-1.19 -7.96 17.35 6.63c0.32,0.12 0.66,0.19 1.03,0.19 1.58,0 2.87,-1.28 2.87,-2.86l0 -19.72c0,-0.96 -0.47,-1.85 -1.26,-2.39zm-27.65 9.03c0,-0.63 0.51,-1.14 1.14,-1.14l5.05 0 0 8.42 -5.05 0c-0.63,0 -1.14,-0.51 -1.14,-1.14l-0 -6.14zm6.62 18.32c-0.13,0.05 -0.26,0.07 -0.4,0.07l-1.49 0c-0.47,0 -0.88,-0.32 -1.01,-0.79l-1.33 -8.74 3.58 0 1.35 8.58c0,0.23 -0.09,0.44 -0.25,0.6l-0.54 0.52 0.1 -0.24zm20.71 -5.24c0,0.73 -0.6,1.31 -1.32,1.31 -0.16,0 -0.31,-0.03 -0.46,-0.08l-17.76 -6.79 0 -8.57 17.75 -6.75c0.15,-0.06 0.32,-0.09 0.48,-0.09 0.26,0 0.52,0.08 0.74,0.23 0.36,0.25 0.57,0.66 0.57,1.09l0 19.65z"/>
 </g>
</svg>
