<?xml version="1.0" encoding="utf-8"?>
<!-- Generator: Adobe Illustrator 20.1.0, SVG Export Plug-In . SVG Version: 6.00 Build 0)  -->
<svg version="1.1" id="Capa_1" xmlns="http://www.w3.org/2000/svg" xmlns:xlink="http://www.w3.org/1999/xlink" x="0px" y="0px"
	 viewBox="0 0 960 960" style="enable-background:new 0 0 960 960;" xml:space="preserve">
<style type="text/css">
	.st0{fill:#FFD364;}
	.st1{fill:#F4F4F4;}
</style>
<g>
	<polygon class="st0" points="409,575 409,525 178.8,525 208,391 408,391 408,341 567,341 567,391 791,391 762,525 568,525 568,575 
			"/>
	<path class="st1" d="M562,346v39.8V396h10h212.8l-26.9,124H573.4H563v10.5V570H414v-39.5V520h-9.6H185l27-124H403h10v-10.2V346H562
		 M572,336H403v50H204l-31.4,144H404v50h169v-50h193l31.2-144H572V336L572,336z"/>
</g>
</svg>
