<svg width="339" height="171" viewBox="0 0 339 171" version="1.1" xmlns="http://www.w3.org/2000/svg" xmlns:xlink="http://www.w3.org/1999/xlink">
<title>Buentaxi 2</title>
<desc>Created using Figma</desc>
<g id="Canvas" transform="translate(358 -496)">
<g id="Buentaxi 2">
<g id="car">
<g id="Vector">
<use xlink:href="#path0_stroke" transform="translate(-354 507.843)"/>
</g>
<g id="Vector">
<use xlink:href="#path1_stroke" transform="translate(-111.222 593.883)"/>
</g>
<g id="Vector">
<use xlink:href="#path1_stroke" transform="translate(-299.488 609.578)"/>
</g>
<g id="Vector">
<use xlink:href="#path2_fill" transform="translate(-244.219 496)"/>
</g>
</g>
</g>
</g>
<defs>
<path id="path0_stroke" d="M 171.655 125.216L 171.101 121.255L 171.089 121.257L 171.077 121.258L 171.655 125.216ZM 18.6753 128.33L 16.89 131.909L 18.6753 128.33ZM 77.2378 19.3431L 74.584 16.3501L 74.1301 16.7526L 73.8159 17.2716L 77.2378 19.3431ZM 312.226 45.4165L 313.414 41.5968L 313.402 41.5932L 312.226 45.4165ZM 330.426 102.512L 334.114 104.061L 334.117 104.054L 334.12 104.047L 330.426 102.512ZM 3.81612 60.3221L 0.168083 58.6815L 3.81612 60.3221ZM 242.615 117.992C 229.003 118.548 212.813 119.133 199.223 119.689C 185.783 120.24 174.534 120.775 171.101 121.255L 172.209 129.178C 175.14 128.768 185.831 128.245 199.551 127.683C 213.121 127.127 229.31 126.542 242.941 125.985L 242.615 117.992ZM 79.8916 22.336C 86.8126 16.1993 101.221 11.6504 118.917 8.63753C 136.378 5.65971 155.92 4.33743 172.405 4.00659L 172.244 -3.99179C 155.569 -3.65485 135.434 -2.28447 117.575 0.751013C 99.9513 3.75141 83.3963 8.53652 74.584 16.3501L 79.8916 22.336ZM 172.405 4.00659C 187.227 3.70813 200.982 13.6323 212.086 24.7831C 217.57 30.2847 222.164 35.8392 225.762 40.207C 227.559 42.3898 229.137 44.3112 230.411 45.7295C 231.067 46.4573 231.752 47.1636 232.312 47.6661C 232.793 48.0939 233.74 48.9008 234.958 49.2564L 237.199 41.5766C 237.846 41.7653 238.053 42.0662 237.633 41.6921C 237.293 41.3928 236.918 41.0016 236.359 40.3795C 235.205 39.098 233.74 37.31 231.937 35.121C 228.333 30.7451 223.492 24.9055 217.755 19.1383C 206.416 7.75148 190.584 -4.36111 172.244 -3.99179L 172.405 4.00659ZM 234.958 49.2564C 235.732 49.4821 236.659 49.5548 237.341 49.5944C 238.111 49.6386 239.115 49.6625 240.217 49.6676C 242.394 49.6768 245.263 49.6197 248.548 49.5244C 255.106 49.3341 263.506 48.9894 272.066 48.7048C 280.628 48.4201 289.31 48.1955 296.518 48.2426C 300.112 48.2656 303.25 48.3531 305.851 48.535C 308.511 48.7201 310.214 48.9824 311.051 49.2398L 313.402 41.5932C 311.615 41.0437 309.113 40.7426 306.407 40.5543C 303.641 40.3627 300.25 40.2668 296.57 40.2428C 289.232 40.1959 280.392 40.4235 271.801 40.7092C 263.209 40.995 254.826 41.339 248.316 41.5278C 245.067 41.6221 242.332 41.6771 240.252 41.6676C 239.226 41.6633 238.437 41.6452 237.805 41.6079C 237.085 41.5661 236.998 41.5179 237.199 41.5766L 234.958 49.2564ZM 311.039 49.2363C 311.229 49.2954 311.924 49.6553 313.021 51.0025C 314.143 52.3666 315.181 54.0889 316.328 56.3916C 318.673 61.069 320.796 67.0242 322.586 73.3441C 324.38 79.6637 325.725 85.9784 326.445 91.2968C 326.804 93.9283 326.991 96.123 326.999 97.9792C 327.007 98.8784 326.978 99.5172 326.899 100.133C 326.835 100.694 326.645 101.149 326.732 100.977L 334.12 104.047C 334.852 102.284 335.012 100.021 334.999 97.9289C 334.983 95.7615 334.756 93.053 334.372 90.2189C 333.606 84.6059 332.145 77.7388 330.283 71.1618C 328.416 64.5853 326.031 57.9291 323.484 52.8159C 322.185 50.2232 320.681 47.7554 319.224 45.9515C 317.742 44.1306 315.819 42.3446 313.414 41.5968L 311.039 49.2363ZM 326.738 100.963C 326.786 100.572 326.193 101.663 324.411 102.672C 322.517 103.774 320.063 104.833 316.96 105.959C 310.69 108.24 302.725 110.371 294.705 112.189L 296.475 119.991C 304.645 118.137 313.093 115.871 319.691 113.478C 323.022 112.266 326.116 110.919 328.412 109.6C 330.574 108.351 333.058 106.574 334.114 104.061L 326.738 100.963ZM 63.9562 47.6391C 68.3508 41.0632 72.5345 34.4951 75.6017 29.5989C 77.1378 27.1468 78.4034 25.0989 79.2802 23.6718C 79.7197 22.9564 80.0648 22.3917 80.2982 22.009C 80.4154 21.8167 80.5058 21.668 80.5661 21.5687C 80.5965 21.5187 80.6199 21.4801 80.6353 21.4547C 80.6431 21.4418 80.6492 21.4317 80.6532 21.4252C 80.6552 21.4219 80.6568 21.4192 80.6579 21.4175C 80.6584 21.4166 80.6589 21.4158 80.6591 21.4154C 80.6593 21.4151 80.6594 21.4149 80.6595 21.4148C 80.6596 21.4146 80.6597 21.4145 77.2378 19.3431C 73.8159 17.2716 73.816 17.2716 73.8159 17.2716C 73.8159 17.2717 73.8159 17.2718 73.8158 17.2719C 73.8156 17.2722 73.8153 17.2727 73.8149 17.2734C 73.814 17.2748 73.8127 17.2769 73.811 17.2798C 73.8073 17.2859 73.8019 17.2947 73.7946 17.3068C 73.7797 17.3313 73.7579 17.3673 73.7286 17.4156C 73.6693 17.5131 73.5822 17.6564 73.4673 17.845C 73.2363 18.224 72.8985 18.7767 72.4639 19.4839C 71.5926 20.9021 70.3453 22.9204 68.8221 25.3519C 65.7709 30.2227 61.651 36.6914 57.3049 43.1939L 63.9562 47.6391ZM 20.4606 124.751C 18.9358 123.99 16.4975 121.5 13.8284 116.933C 11.2016 112.454 8.83299 106.882 7.01617 100.48C 3.3515 87.6235 2.49338 73.0154 7.46417 61.9628L 0.168083 58.6815C -5.90916 72.1943 -4.5821 88.9744 -0.677377 102.673C 1.29049 109.548 4.0526 116.045 6.92148 120.97C 9.7481 125.806 13.1703 130.054 16.89 131.909L 20.4606 124.751ZM 7.46417 61.9628C 7.45001 62.2801 7.5141 61.726 8.67881 61.2538C 9.97855 60.6727 11.5942 60.2848 13.8606 59.9105C 18.4832 59.1349 24.4574 58.8001 30.7911 58.3248C 37.1232 57.8492 43.8822 57.2148 49.5756 55.8642C 55.151 54.5314 60.8737 52.2513 63.9562 47.6391L 57.3049 43.1939C 56.017 45.1209 52.9681 46.8278 47.7155 48.0835C 42.581 49.3214 36.4558 49.8771 30.1922 50.3472C 23.9303 50.8175 17.5974 51.1841 12.5466 52.0191C 9.9762 52.4502 7.41349 53.0951 5.48637 53.9184C 3.49191 54.7864 1.27915 56.211 0.168083 58.6815L 7.46417 61.9628ZM 53.6101 126.224C 44.5916 126.287 36.735 126.201 30.7195 125.907C 27.7321 125.762 25.3155 125.575 23.4089 125.327C 21.5778 125.094 20.1378 124.556 20.4606 124.751L 16.89 131.909C 18.3381 132.632 20.4058 133.005 22.3827 133.261C 24.4918 133.533 27.2272 133.746 30.3304 133.898C 36.4962 134.197 44.5752 134.287 53.6658 134.224L 53.6101 126.224ZM 171.077 121.258C 167.283 121.812 139.113 123.513 107.669 124.779L 107.991 132.772C 139.206 131.515 167.913 129.805 172.232 129.175L 171.077 121.258Z"/>
<path id="path1_stroke" d="M 49.5936 26.7112C 49.5936 39.2423 39.3992 49.4225 26.7968 49.4225L 26.7968 57.4225C 43.7933 57.4225 57.5936 43.6847 57.5936 26.7112L 49.5936 26.7112ZM 26.7968 49.4225C 14.1944 49.4225 4 39.2423 4 26.7112L -4 26.7112C -4 43.6847 9.80027 57.4225 26.7968 57.4225L 26.7968 49.4225ZM 4 26.7112C 4 14.1802 14.1944 3.99999 26.7968 3.99999L 26.7968 -4.00001C 9.80027 -4.00001 -4 9.73784 -4 26.7112L 4 26.7112ZM 26.7968 3.99999C 39.3992 3.99999 49.5936 14.1802 49.5936 26.7112L 57.5936 26.7112C 57.5936 9.73784 43.7933 -4.00001 26.7968 -4.00001L 26.7968 3.99999Z"/>
<path id="path2_fill" d="M 0.0182313 15.7462C -0.428382 6.84248 7.38736 1.83412 16.8779 0.164666C 26.3684 -1.50479 31.3928 10.0701 31.3928 10.0701"/>
</defs>
</svg>
