<?xml version="1.0" encoding="UTF-8"?>
<!DOCTYPE svg PUBLIC "-//W3C//DTD SVG 1.1//EN" "http://www.w3.org/Graphics/SVG/1.1/DTD/svg11.dtd">
<!-- Creator: CorelDRAW -->
<svg xmlns="http://www.w3.org/2000/svg" xml:space="preserve" width="15.1066mm" height="13.0819mm" version="1.1" style="shape-rendering:geometricPrecision; text-rendering:geometricPrecision; image-rendering:optimizeQuality; fill-rule:evenodd; clip-rule:evenodd"
viewBox="0 0 30.07 26.04"
 xmlns:xlink="http://www.w3.org/1999/xlink"
 xmlns:xodm="http://www.corel.com/coreldraw/odm/2003">
 <defs>
  <style type="text/css">
   <![CDATA[
    .fil0 {fill:#F30F28}
   ]]>
  </style>
 </defs>
 <g id="Layer_x0020_1">
  <metadata id="CorelCorpID_0Corel-Layer"/>
  <path class="fil0" d="M15.03 -0l15.03 26.04 -30.07 0 15.03 -26.04zm11.37 23.92l-11.37 -19.7 -11.37 19.7 22.75 0zm-12.43 -14.4c0,-0.58 0.47,-1.06 1.06,-1.06 0.58,0 1.06,0.47 1.06,1.06l0 9.19c0,0.58 -0.47,1.06 -1.06,1.06 -0.58,0 -1.06,-0.47 -1.06,-1.06l0 -9.19zm2.4 11.77c0,0.74 -0.6,1.34 -1.34,1.34 -0.74,0 -1.34,-0.6 -1.34,-1.34 0,-0.74 0.6,-1.34 1.34,-1.34 0.74,0 1.34,0.6 1.34,1.34z"/>
 </g>
</svg>
