<?xml version="1.0" encoding="UTF-8"?>
<!DOCTYPE svg PUBLIC "-//W3C//DTD SVG 1.1//EN" "http://www.w3.org/Graphics/SVG/1.1/DTD/svg11.dtd">
<!-- Creator: CorelDRAW -->
<svg xmlns="http://www.w3.org/2000/svg" xml:space="preserve" width="27.94mm" height="18.3594mm" version="1.1" style="shape-rendering:geometricPrecision; text-rendering:geometricPrecision; image-rendering:optimizeQuality; fill-rule:evenodd; clip-rule:evenodd"
viewBox="0 0 536.68 352.65"
 xmlns:xlink="http://www.w3.org/1999/xlink"
 xmlns:xodm="http://www.corel.com/coreldraw/odm/2003">
 <defs>
  <style type="text/css">
   <![CDATA[
    .fil0 {fill:black}
    .fil1 {fill:#373435;fill-rule:nonzero}
    .fil2 {fill:black;fill-rule:nonzero}
   ]]>
  </style>
 </defs>
 <g id="Layer_x0020_1">
  <metadata id="CorelCorpID_0Corel-Layer"/>
  <g id="_2593904780640">
   <path class="fil0" d="M536.68 150.63l0 51.39 0 84.73c0,7.87 -6.44,14.31 -14.31,14.31l-391.15 0 13 -13.01 378.15 0c0.72,0 1.3,-0.58 1.3,-1.3l0 -84.73 0 -51.39 0 -84.73c0,-0.72 -0.58,-1.3 -1.3,-1.3l-154.92 0 13.02 -13.01 141.9 0c7.87,0 14.31,6.44 14.31,14.31l0 84.73zm-430.38 150.43l-91.99 0c-7.87,0 -14.31,-6.44 -14.31,-14.31l0 -84.73 0 -51.39 0 -84.73c0,-7.87 6.44,-14.31 14.31,-14.31l341.3 0 -13.01 13.01 -328.29 0c-0.72,0 -1.3,0.58 -1.3,1.3l0 84.73 0 51.39 0 84.73c0,0.72 0.58,1.3 1.3,1.3l105 0 -13.01 13.01z"/>
   <g>
    <polygon class="fil0" points="361.24,153.96 357.47,150.28 335.76,172.57 314.03,150.28 310.26,153.96 332.08,176.33 310.26,198.69 314.03,202.37 335.76,180.08 357.47,202.37 361.24,198.69 339.42,176.33 "/>
    <polygon class="fil0" points="427.19,153.96 423.42,150.28 401.7,172.57 379.98,150.28 376.21,153.96 398.03,176.33 376.21,198.69 379.98,202.37 401.7,180.08 423.42,202.37 427.19,198.69 405.37,176.33 "/>
    <polygon class="fil0" points="493.13,153.96 489.36,150.28 467.65,172.57 445.93,150.28 442.15,153.96 463.98,176.33 442.15,198.69 445.93,202.37 467.65,180.08 489.36,202.37 493.13,198.69 471.31,176.33 "/>
    <path class="fil1" d="M73.92 211.96c-9.5,0 -16.94,-2.67 -22.32,-8.02 -5.38,-5.34 -8.07,-13.06 -8.07,-23.16l0 -39.1 12.87 0 0 38.6c0,7.13 1.53,12.31 4.6,15.54 3.07,3.23 7.41,4.85 13.02,4.85 5.61,0 9.93,-1.62 12.97,-4.85 3.03,-3.23 4.55,-8.41 4.55,-15.54l0 -38.6 12.67 0 0 39.1c0,10.1 -2.69,17.82 -8.07,23.16 -5.38,5.35 -12.79,8.02 -22.22,8.02zm80.76 0c-5.41,0 -10.39,-0.89 -14.95,-2.67 -4.55,-1.78 -8.51,-4.27 -11.88,-7.47 -3.37,-3.2 -5.97,-6.96 -7.82,-11.28 -1.85,-4.32 -2.77,-9.06 -2.77,-14.2 0,-5.15 0.92,-9.88 2.77,-14.2 1.85,-4.32 4.45,-8.08 7.82,-11.28 3.37,-3.2 7.32,-5.69 11.88,-7.47 4.55,-1.78 9.5,-2.67 14.85,-2.67 5.41,0 10.38,0.89 14.9,2.67 4.52,1.78 8.46,4.25 11.83,7.42 3.37,3.17 5.97,6.93 7.82,11.28 1.85,4.35 2.77,9.1 2.77,14.25 0,5.15 -0.92,9.9 -2.77,14.25 -1.85,4.35 -4.45,8.12 -7.82,11.28 -3.37,3.17 -7.31,5.64 -11.83,7.42 -4.52,1.78 -9.45,2.67 -14.8,2.67zm22.57 14.15c-2.44,0 -4.8,-0.28 -7.08,-0.84 -2.28,-0.56 -4.52,-1.48 -6.73,-2.77 -2.21,-1.29 -4.5,-2.97 -6.88,-5.05 -2.37,-2.08 -4.98,-4.63 -7.82,-7.67l13.66 -3.56c1.85,2.44 3.61,4.4 5.29,5.89 1.68,1.48 3.32,2.56 4.9,3.22 1.58,0.66 3.23,0.99 4.95,0.99 4.55,0 8.51,-1.85 11.88,-5.54l5.94 7.13c-4.62,5.48 -10.66,8.22 -18.11,8.22zm-22.67 -25.44c3.5,0 6.73,-0.59 9.7,-1.78 2.97,-1.19 5.54,-2.89 7.72,-5.1 2.18,-2.21 3.88,-4.8 5.1,-7.77 1.22,-2.97 1.83,-6.2 1.83,-9.7 0,-3.56 -0.61,-6.81 -1.83,-9.75 -1.22,-2.94 -2.92,-5.51 -5.1,-7.72 -2.18,-2.21 -4.75,-3.91 -7.72,-5.1 -2.97,-1.19 -6.2,-1.78 -9.7,-1.78 -3.5,0 -6.73,0.59 -9.7,1.78 -2.97,1.19 -5.54,2.89 -7.72,5.1 -2.18,2.21 -3.88,4.78 -5.1,7.72 -1.22,2.94 -1.83,6.19 -1.83,9.75 0,3.5 0.61,6.73 1.83,9.7 1.22,2.97 2.92,5.56 5.1,7.77 2.18,2.21 4.75,3.91 7.72,5.1 2.97,1.19 6.2,1.78 9.7,1.78zm83.44 11.28c-5.41,0 -10.39,-0.89 -14.95,-2.67 -4.55,-1.78 -8.51,-4.27 -11.88,-7.47 -3.37,-3.2 -5.97,-6.96 -7.82,-11.28 -1.85,-4.32 -2.77,-9.06 -2.77,-14.2 0,-5.15 0.92,-9.88 2.77,-14.2 1.85,-4.32 4.45,-8.08 7.82,-11.28 3.37,-3.2 7.32,-5.69 11.88,-7.47 4.55,-1.78 9.5,-2.67 14.85,-2.67 5.41,0 10.38,0.89 14.9,2.67 4.52,1.78 8.46,4.25 11.83,7.42 3.37,3.17 5.97,6.93 7.82,11.28 1.85,4.35 2.77,9.1 2.77,14.25 0,5.15 -0.92,9.9 -2.77,14.25 -1.85,4.35 -4.45,8.12 -7.82,11.28 -3.37,3.17 -7.31,5.64 -11.83,7.42 -4.52,1.78 -9.45,2.67 -14.8,2.67zm22.57 14.15c-2.44,0 -4.8,-0.28 -7.08,-0.84 -2.28,-0.56 -4.52,-1.48 -6.73,-2.77 -2.21,-1.29 -4.5,-2.97 -6.88,-5.05 -2.37,-2.08 -4.98,-4.63 -7.82,-7.67l13.66 -3.56c1.85,2.44 3.61,4.4 5.29,5.89 1.68,1.48 3.32,2.56 4.9,3.22 1.58,0.66 3.23,0.99 4.95,0.99 4.55,0 8.51,-1.85 11.88,-5.54l5.94 7.13c-4.62,5.48 -10.66,8.22 -18.11,8.22zm-22.67 -25.44c3.5,0 6.73,-0.59 9.7,-1.78 2.97,-1.19 5.54,-2.89 7.72,-5.1 2.18,-2.21 3.88,-4.8 5.1,-7.77 1.22,-2.97 1.83,-6.2 1.83,-9.7 0,-3.56 -0.61,-6.81 -1.83,-9.75 -1.22,-2.94 -2.92,-5.51 -5.1,-7.72 -2.18,-2.21 -4.75,-3.91 -7.72,-5.1 -2.97,-1.19 -6.2,-1.78 -9.7,-1.78 -3.5,0 -6.73,0.59 -9.7,1.78 -2.97,1.19 -5.54,2.89 -7.72,5.1 -2.18,2.21 -3.88,4.78 -5.1,7.72 -1.22,2.94 -1.83,6.19 -1.83,9.75 0,3.5 0.61,6.73 1.83,9.7 1.22,2.97 2.92,5.56 5.1,7.77 2.18,2.21 4.75,3.91 7.72,5.1 2.97,1.19 6.2,1.78 9.7,1.78z"/>
   </g>
   <path class="fil2" d="M266.25 190.71l17.06 -17.04c0.24,-0.2 0.48,-0.41 0.7,-0.63l4.06 -4.06 35.47 -35.49 -0.01 -0.01 4.85 -4.84 0.3 -0.3 2.37 -2.37 14.91 -14.89c0.13,-0.13 0.27,-0.27 0.39,-0.41l9.14 -9.14 -0.03 -0.03 37.82 -37.78 0.37 -0.37 48.36 -48.31c1.66,-1.64 2.59,-3.89 2.59,-6.23 0,-4.87 -3.95,-8.81 -8.81,-8.81 -2.34,0 -4.58,0.93 -6.23,2.58l-95.96 95.96 -0.08 0.08 -61.95 61.95 -0.08 0.08 -0.08 0.08 -95.89 95.89c-0.34,0.34 -0.65,0.71 -0.93,1.09l-79.9 79.9c-1.65,1.65 -2.58,3.89 -2.58,6.23 0,4.87 3.95,8.81 8.81,8.81 2.34,0 4.58,-0.93 6.23,-2.58l4.06 -4.06 35.47 -35.49 -0.04 -0.03 5.18 -5.11 26.81 -26.82 -0.03 -0.03 37.82 -37.78 0.37 -0.37 48.36 -48.31c0.42,-0.42 0.8,-0.88 1.12,-1.37z"/>
  </g>
 </g>
</svg>
