<?xml version="1.0" encoding="UTF-8"?>
<!DOCTYPE svg PUBLIC "-//W3C//DTD SVG 1.1//EN" "http://www.w3.org/Graphics/SVG/1.1/DTD/svg11.dtd">
<!-- Creator: CorelDRAW -->
<svg xmlns="http://www.w3.org/2000/svg" xml:space="preserve" width="15.2581mm" height="15.2581mm" version="1.1" style="shape-rendering:geometricPrecision; text-rendering:geometricPrecision; image-rendering:optimizeQuality; fill-rule:evenodd; clip-rule:evenodd"
viewBox="0 0 694.37 694.37"
 xmlns:xlink="http://www.w3.org/1999/xlink"
 xmlns:xodm="http://www.corel.com/coreldraw/odm/2003">
 <defs>
  <style type="text/css">
   <![CDATA[
    .fil0 {fill:black}
   ]]>
  </style>
 </defs>
 <g id="Layer_x0020_1">
  <metadata id="CorelCorpID_0Corel-Layer"/>
  <path class="fil0" d="M674.68 0l-130.99 0c-10.87,0 -19.7,8.82 -19.7,19.7l0 242.28 -91.6 0 0 -78.54c0,-10.87 -8.82,-19.7 -19.7,-19.7 -3.05,0 -6.06,0.72 -8.79,2.08l-168.05 83.99 0 -66.37c0,-10.87 -8.79,-19.7 -19.66,-19.7 -3.05,0 -6.06,0.72 -8.79,2.08l-196.5 98.27c-6.67,3.3 -10.9,10.12 -10.9,17.58l0 393c0,10.87 8.82,19.7 19.7,19.7l654.98 0c10.87,0 19.7,-8.82 19.7,-19.7l0 -654.98c0,-10.87 -8.82,-19.7 -19.7,-19.7zm-19.66 39.36l0 91.63 -91.63 0 0 -91.63 91.63 0zm-615.66 615.66l0 -361.18 157.15 -78.53 0 66.37c0,10.87 8.79,19.73 19.7,19.73 3.05,0 6.06,-0.72 8.79,-2.08l168.02 -84.03 0 66.37c0,10.87 8.82,19.7 19.7,19.7l130.99 0c10.87,0 19.7,-8.82 19.7,-19.7l0 -111.3 91.63 0 0 484.64 -615.66 0zm91.63 -262.02l0 39.39 72.15 0 0 -39.39 -72.15 0zm163.74 0l0 39.39 104.91 0 0 -39.39 -104.91 0zm196.51 0l0 39.39 72.15 0 0 -39.39 -72.15 0zm-360.25 130.99l0 39.39 72.15 0 0 -39.39 -72.15 0zm163.74 0l0 39.39 104.91 0 0 -39.39 -104.91 0zm196.51 0l0 39.39 72.15 0 0 -39.39 -72.15 0z"/>
 </g>
</svg>
