<?xml version="1.0" encoding="UTF-8"?>
<!DOCTYPE svg PUBLIC "-//W3C//DTD SVG 1.1//EN" "http://www.w3.org/Graphics/SVG/1.1/DTD/svg11.dtd">
<!-- Creator: CorelDRAW -->
<svg xmlns="http://www.w3.org/2000/svg" xml:space="preserve" width="13.3227mm" height="13.3226mm" version="1.1" style="shape-rendering:geometricPrecision; text-rendering:geometricPrecision; image-rendering:optimizeQuality; fill-rule:evenodd; clip-rule:evenodd"
viewBox="0 0 172.27 172.26"
 xmlns:xlink="http://www.w3.org/1999/xlink"
 xmlns:xodm="http://www.corel.com/coreldraw/odm/2003">
 <defs>
  <style type="text/css">
   <![CDATA[
    .fil0 {fill:black}
   ]]>
  </style>
 </defs>
 <g id="Layer_x0020_1">
  <metadata id="CorelCorpID_0Corel-Layer"/>
  <path class="fil0" d="M150.73 172.26l-29.61 0c-7.43,0 -13.46,-6.03 -13.46,-13.46l0 -37.68c0,-7.43 6.03,-13.46 13.46,-13.46l4.35 0c2.8,0 5.67,-2.24 6.41,-5.06l2.85 -10.75c0.84,-3.13 -0.95,-5.73 -3.99,-5.73l-9.63 0c-7.43,0 -13.46,-6.02 -13.46,-13.45l0 -5.38c0,-7.44 6.02,-13.46 13.46,-13.46l8.08 0c2.97,0 5.38,-2.41 5.38,-5.38l0 -10.77c0,-2.97 -2.42,-5.38 -5.38,-5.38l-16.15 0c-14.87,0 -26.91,12.05 -26.91,26.92l0 13.46c0,7.43 -6.03,13.45 -13.46,13.45l-2.57 0c-3.04,0 -5.51,2.59 -5.51,5.73l0 10.75c0,2.82 2.27,5.06 5.07,5.06l3.01 0c7.43,0 13.46,6.02 13.46,13.46l0 37.68c0,7.43 -6.03,13.46 -13.46,13.46l-2.69 0c-2.98,0 -5.38,-2.41 -5.38,-5.38 0,-2.98 2.41,-5.38 5.38,-5.38 2.97,0 5.38,-2.41 5.38,-5.38l0 -32.3c0,-2.98 -2.41,-5.38 -5.38,-5.38l-3.53 -0c-6.97,0 -12.62,-5.58 -12.62,-12.64l0 -16.12c0,-7.79 6.18,-14.3 13.8,-14.3l2.35 0c2.97,0 5.38,-2.41 5.38,-5.38l0 -13.46c0,-19.33 15.66,-34.99 34.99,-34.99l21.54 0c7.43,0 13.45,6.02 13.45,13.45l0 16.15c0,7.43 -6.02,13.46 -13.45,13.46l-8.08 0 -5.38 0 0 5.39c0,2.97 2.41,5.38 5.38,5.38l10.08 0c7.63,0 12.58,6.51 11.12,14.3l-3.02 16.12c-1.32,7.07 -8.02,12.64 -14.99,12.64l-3.2 0c-2.98,0 -5.38,2.41 -5.38,5.38l0 32.3c0,2.97 2.41,5.38 5.38,5.38l26.92 0c5.95,0 10.77,-4.82 10.77,-10.77l0 -129.2c0,-5.95 -4.82,-10.77 -10.77,-10.77l-129.2 0c-5.95,0 -10.77,4.82 -10.77,10.77l0 129.2c0,5.95 4.82,10.77 10.77,10.77l5.38 0c2.97,0 5.38,2.41 5.38,5.38 0,2.97 -2.41,5.38 -5.38,5.38l-5.38 0c-11.89,0 -21.54,-9.64 -21.54,-21.53l0 -129.2c0,-11.9 9.65,-21.54 21.54,-21.54l129.2 0c11.9,0 21.53,9.64 21.53,21.54l0 129.2c0,11.89 -9.64,21.53 -21.53,21.53l0 0zm-102.28 -10.77c2.98,0 5.38,2.41 5.38,5.38 0,2.97 -2.41,5.38 -5.38,5.38 -2.97,0 -5.38,-2.41 -5.38,-5.38 0,-2.98 2.41,-5.38 5.38,-5.38l0 0z"/>
 </g>
</svg>
