<?xml version="1.0" encoding="UTF-8"?>
<!DOCTYPE svg PUBLIC "-//W3C//DTD SVG 1.1//EN" "http://www.w3.org/Graphics/SVG/1.1/DTD/svg11.dtd">
<!-- Creator: CorelDRAW -->
<svg xmlns="http://www.w3.org/2000/svg" xml:space="preserve" width="13.3226mm" height="13.3226mm" version="1.1" style="shape-rendering:geometricPrecision; text-rendering:geometricPrecision; image-rendering:optimizeQuality; fill-rule:evenodd; clip-rule:evenodd"
viewBox="0 0 113.6 113.6"
 xmlns:xlink="http://www.w3.org/1999/xlink"
 xmlns:xodm="http://www.corel.com/coreldraw/odm/2003">
 <defs>
  <style type="text/css">
   <![CDATA[
    .fil0 {fill:black}
   ]]>
  </style>
 </defs>
 <g id="Layer_x0020_1">
  <metadata id="CorelCorpID_0Corel-Layer"/>
  <path class="fil0" d="M39.02 71.01c1.96,0 3.54,1.59 3.54,3.54 0,1.95 -1.58,3.54 -3.54,3.54 -1.95,0 -3.54,-1.58 -3.54,-3.54 0,-1.95 1.59,-3.54 3.54,-3.54l0 0zm-10.37 -10.13c-2.24,-15.53 8.54,-29.93 24.07,-32.17 15.53,-2.24 29.93,8.54 32.17,24.07 2.24,15.53 -8.54,29.93 -24.07,32.17 -0.17,0.03 -0.34,0.03 -0.51,0.05l0.53 -0.07c-1.94,0.28 -3.74,-1.07 -4.02,-3.01 -0.28,-1.94 1.07,-3.74 3.01,-4.02l-0.01 -0.01c0.01,0 0.01,0 0.01,0 11.64,-1.68 19.72,-12.47 18.04,-24.12 -1.68,-11.65 -12.47,-19.72 -24.12,-18.04 -11.64,1.68 -19.72,12.47 -18.04,24.12 0,0.01 0,0.01 0,0.01l-0.01 0.01 0 0c0.28,1.94 -1.07,3.74 -3.01,4.02 -1.94,0.28 -3.74,-1.07 -4.02,-3.01l0.08 0.53c-0.02,-0.17 -0.07,-0.34 -0.1,-0.51l0 0zm56.52 -37.8c0,-2.94 2.39,-5.33 5.34,-5.33 2.91,0 5.28,2.34 5.32,5.25l0 0.17c-0.05,2.91 -2.41,5.25 -5.32,5.25 -2.95,0 -5.34,-2.39 -5.34,-5.34l0 0zm18.94 80.79c-6.17,6.24 -14.74,9.73 -29.55,9.73l-35.54 0c-14.81,0 -23.38,-3.49 -29.55,-9.73 -6.09,-6.15 -9.48,-14.74 -9.48,-29.3l0 -35.54c0,-14.56 3.39,-23.15 9.48,-29.3 6.17,-6.24 14.73,-9.73 29.55,-9.73l35.54 0c14.81,0 23.38,3.49 29.55,9.73 0.4,0.4 0.76,0.83 1.12,1.26 0.75,0.65 1.23,1.6 1.23,2.67 0,1.96 -1.59,3.55 -3.55,3.55 -1.07,0 -2.02,-0.49 -2.67,-1.24l-0.05 0.04c-0.37,-0.43 -0.71,-0.89 -1.11,-1.29 -5.4,-5.46 -13.37,-7.6 -26.33,-7.6l-31.94 -0c-12.96,0 -20.92,2.14 -26.32,7.6 -5.33,5.38 -7.4,13.38 -7.4,26.11l0 31.94c0,12.74 2.07,20.72 7.4,26.1 5.4,5.46 13.36,7.62 26.32,7.62l31.94 0c12.96,0 20.94,-2.16 26.34,-7.62 5.33,-5.38 7.38,-13.35 7.38,-26.1l0 -31.94c0,-3.1 -0.13,-5.92 -0.39,-8.48l0.02 -0c-0.19,-1.96 1.23,-3.71 3.19,-3.92 1.96,-0.2 3.73,1.23 3.93,3.19 0.01,0.05 0,0.1 0,0.15l0.01 0c0.21,2.26 0.36,4.63 0.36,7.26l0 35.54c0,14.56 -3.39,23.15 -9.48,29.3l0 0z"/>
 </g>
</svg>
