<?xml version="1.0" encoding="UTF-8"?>
<!DOCTYPE svg PUBLIC "-//W3C//DTD SVG 1.1//EN" "http://www.w3.org/Graphics/SVG/1.1/DTD/svg11.dtd">
<!-- Creator: CorelDRAW -->
<svg xmlns="http://www.w3.org/2000/svg" xml:space="preserve" width="21.1716mm" height="16.8449mm" version="1.1" style="shape-rendering:geometricPrecision; text-rendering:geometricPrecision; image-rendering:optimizeQuality; fill-rule:evenodd; clip-rule:evenodd"
viewBox="0 0 156.64 124.63"
 xmlns:xlink="http://www.w3.org/1999/xlink"
 xmlns:xodm="http://www.corel.com/coreldraw/odm/2003">
 <defs>
  <style type="text/css">
   <![CDATA[
    .fil0 {fill:black}
   ]]>
  </style>
 </defs>
 <g id="Layer_x0020_1">
  <metadata id="CorelCorpID_0Corel-Layer"/>
  <path class="fil0" d="M144.82 0l-133 0c-6.59,0 -11.82,5.23 -11.82,11.82l0 100.99c0,6.49 5.32,11.82 11.82,11.82l133 0c6.49,0 11.82,-5.32 11.82,-11.82l0 -100.99c0,-6.5 -5.32,-11.82 -11.82,-11.82zm-58.03 103.34l63.99 -31.82 0 41.29c0,3.27 -2.68,5.96 -5.96,5.96l-133 -0c-3.27,0 -5.96,-2.68 -5.96,-5.96l0 -21.78 44.5 -19.32 32.99 31.2c0.57,0.43 1.33,0.74 2.09,0.74 0.45,0 0.94,-0.17 1.36,-0.31zm58.03 -97.48c3.27,0 5.96,2.68 5.96,5.96l0 53.36 -0.5 0.1c-0.26,0.05 -0.5,0.14 -0.74,0.26l-63.51 31.85 -33.04 -31.07c-0.84,-0.84 -2.16,-1.05 -3.23,-0.59l-43.91 19.03 0 -72.95c0,-3.27 2.68,-5.96 5.96,-5.96l133 0zm-16.89 41.25c7.04,0 12.71,-5.68 12.71,-12.71 0,-7.03 -5.67,-12.71 -12.71,-12.71 -7.01,0 -12.89,5.66 -12.89,12.71 0,7.05 5.87,12.71 12.89,12.71zm0 -19.74c3.77,0 7.05,3.03 6.85,6.87 0,3.79 -3.03,6.83 -6.85,6.83 -3.88,0 -7.03,-2.92 -7.03,-6.85 0,-3.83 3.24,-6.85 7.03,-6.85zm-10.05 34.01c-0.01,-0.88 -0.3,-1.92 -1.02,-2.5l-21.36 -18.69c-0.85,-0.85 -2.14,-1.04 -3.18,-0.44l-23.84 12.45c-0.84,0.42 -1.47,1.29 -1.62,2.21 -0.14,0.86 0.14,1.87 0.86,2.44l21.01 19.23c0.47,0.47 1.23,0.71 1.88,0.71 0.51,0 1.05,-0.24 1.49,-0.46l24.18 -12.8c0.9,-0.45 1.46,-1.16 1.62,-2.15zm-43.13 -5.97l18.24 -9.5 16.65 14.57 -18.62 9.88 -16.28 -14.95z"/>
 </g>
</svg>
