<?xml version="1.0" encoding="UTF-8"?>
<!DOCTYPE svg PUBLIC "-//W3C//DTD SVG 1.1//EN" "http://www.w3.org/Graphics/SVG/1.1/DTD/svg11.dtd">
<!-- Creator: CorelDRAW -->
<svg xmlns="http://www.w3.org/2000/svg" xml:space="preserve" width="18.9333mm" height="11.2976mm" version="1.1" style="shape-rendering:geometricPrecision; text-rendering:geometricPrecision; image-rendering:optimizeQuality; fill-rule:evenodd; clip-rule:evenodd"
viewBox="0 0 41.46 24.74"
 xmlns:xlink="http://www.w3.org/1999/xlink"
 xmlns:xodm="http://www.corel.com/coreldraw/odm/2003">
 <defs>
  <style type="text/css">
   <![CDATA[
    .fil0 {fill:black}
   ]]>
  </style>
 </defs>
 <g id="Layer_x0020_1">
  <metadata id="CorelCorpID_0Corel-Layer"/>
  <path class="fil0" d="M33.92 21.9c-0.94,0 -1.79,-0.38 -2.41,-1 -0.62,-0.62 -1.01,-1.47 -1.01,-2.41 0,-0.94 0.38,-1.79 1.01,-2.41 0.62,-0.62 1.47,-1 2.41,-1 0.94,0 1.79,0.38 2.41,1 0.62,0.62 1.01,1.47 1.01,2.41 0,0.94 -0.39,1.79 -1.01,2.41 -0.62,0.62 -1.47,1 -2.41,1zm-15.23 -21.9l-1.89 0 0 1.46 -4.35 0c-0.66,0 -1.19,0.07 -1.69,0.3 -0.53,0.25 -0.94,0.64 -1.31,1.26l-0 -0c-0.22,0.37 -0.92,1.25 -1.68,2.22 -0.86,1.1 -1.8,2.3 -2.31,3.08 -2.11,0.46 -3.38,0.93 -4.15,1.45 -1.06,0.72 -1.3,1.51 -1.3,2.47l0 5.68c0,0.61 0.57,1.51 1.25,2.21 0.69,0.72 1.56,1.32 2.17,1.32l0.49 0c0.44,0.89 1.09,1.65 1.89,2.22 0.96,0.68 2.13,1.08 3.39,1.08 1.26,0 2.43,-0.4 3.39,-1.08 0.8,-0.57 1.46,-1.33 1.89,-2.22l14.16 0c0.44,0.89 1.09,1.65 1.89,2.22 0.96,0.68 2.13,1.08 3.39,1.08 1.32,0 2.54,-0.44 3.53,-1.18 0.92,-0.69 1.63,-1.65 2.02,-2.75 0.42,-0.33 0.86,-0.77 1.21,-1.21 0.46,-0.57 0.78,-1.2 0.78,-1.68l0 -4.64c0,-1.1 -0.86,-1.87 -2.63,-2.49 -1.36,-0.48 -3.35,-0.93 -6.04,-1.46 -1,-0.94 -1.85,-1.75 -2.63,-2.49 -1.83,-1.73 -3.27,-3.1 -4.29,-4.03 -0.64,-0.58 -1.19,-0.91 -1.65,-1.1 -0.52,-0.21 -0.92,-0.25 -1.19,-0.25l-4.35 0 0 -1.46zm-9.31 10.35l18.92 0 0 1.89 -18.92 0 0 -1.89zm22.33 0.54c-0.98,-0.92 -1.95,-1.84 -2.83,-2.68 -1.78,-1.69 -3.19,-3.02 -4.27,-4 -0.46,-0.42 -0.82,-0.64 -1.09,-0.75 -0.21,-0.09 -0.37,-0.1 -0.47,-0.1l-10.6 0c-0.41,0 -0.7,0.03 -0.9,0.12 -0.17,0.08 -0.32,0.24 -0.49,0.52l0 0c-0.26,0.43 -1,1.38 -1.81,2.41 -0.97,1.23 -2.04,2.6 -2.38,3.22l-0.21 0.37 -0.42 0.09c-2.09,0.43 -3.25,0.83 -3.87,1.25 -0.38,0.26 -0.47,0.55 -0.47,0.91l0 5.68c0,0.1 0.33,0.5 0.72,0.91 0.38,0.4 0.74,0.73 0.81,0.73l1.11 0 0.67 0 0.22 0.63c0.28,0.78 0.8,1.46 1.47,1.93 0.65,0.46 1.44,0.73 2.3,0.73 0.86,0 1.65,-0.27 2.3,-0.73 0.67,-0.47 1.19,-1.15 1.47,-1.93l0.22 -0.63 0.67 0 15.41 0 0.67 0 0.22 0.63c0.28,0.78 0.8,1.46 1.46,1.93 0.65,0.46 1.44,0.73 2.3,0.73 0.9,0 1.73,-0.29 2.4,-0.79 0.68,-0.51 1.2,-1.24 1.44,-2.08l0.37 -0.52c0.34,-0.23 0.75,-0.63 1.06,-1.02 0.21,-0.27 0.37,-0.48 0.37,-0.51l0 -4.64c0,-0.16 -0.44,-0.39 -1.36,-0.71 -1.29,-0.45 -3.29,-0.9 -6.04,-1.44l-0.47 -0.24zm-22.51 11c-0.94,0 -1.79,-0.38 -2.41,-1 -0.62,-0.62 -1.01,-1.47 -1.01,-2.41 0,-0.94 0.38,-1.79 1.01,-2.41 0.62,-0.62 1.47,-1 2.41,-1 0.94,0 1.79,0.38 2.41,1 0.62,0.62 1.01,1.47 1.01,2.41 0,0.94 -0.38,1.79 -1.01,2.41 -0.62,0.62 -1.47,1 -2.41,1zm-1.08 -2.34c0.28,0.28 0.66,0.45 1.08,0.45 0.42,0 0.81,-0.17 1.08,-0.45 0.27,-0.27 0.44,-0.65 0.44,-1.07 0,-0.42 -0.17,-0.8 -0.44,-1.08 -0.28,-0.28 -0.66,-0.45 -1.08,-0.45 -0.42,0 -0.81,0.17 -1.08,0.45 -0.28,0.27 -0.45,0.65 -0.45,1.08 0,0.42 0.17,0.8 0.44,1.08zm24.73 0c0.28,0.28 0.66,0.45 1.08,0.45 0.42,0 0.81,-0.17 1.08,-0.45 0.27,-0.27 0.44,-0.65 0.44,-1.07 0,-0.42 -0.17,-0.8 -0.44,-1.08 -0.28,-0.28 -0.66,-0.45 -1.08,-0.45 -0.42,0 -0.81,0.17 -1.08,0.45 -0.27,0.27 -0.44,0.65 -0.44,1.08 0,0.42 0.17,0.8 0.44,1.08z"/>
 </g>
</svg>
