<?xml version="1.0" encoding="UTF-8"?>
<!DOCTYPE svg PUBLIC "-//W3C//DTD SVG 1.1//EN" "http://www.w3.org/Graphics/SVG/1.1/DTD/svg11.dtd">
<!-- Creator: CorelDRAW -->
<svg xmlns="http://www.w3.org/2000/svg" xml:space="preserve" width="8.8142mm" height="12.2888mm" version="1.1" style="shape-rendering:geometricPrecision; text-rendering:geometricPrecision; image-rendering:optimizeQuality; fill-rule:evenodd; clip-rule:evenodd"
viewBox="0 0 265.08 369.57"
 xmlns:xlink="http://www.w3.org/1999/xlink"
 xmlns:xodm="http://www.corel.com/coreldraw/odm/2003">
 <defs>
  <style type="text/css">
   <![CDATA[
    .fil0 {fill:black}
   ]]>
  </style>
 </defs>
 <g id="Capa_x0020_1">
  <metadata id="CorelCorpID_0Corel-Layer"/>
  <path class="fil0" d="M202.67 165.68c17.73,-18.28 27.58,-42.5 27.6,-67.97 0.04,-53.98 -43.76,-97.72 -97.72,-97.72 -53.98,0 -97.72,43.73 -97.72,97.72 0,25.46 9.84,49.68 27.55,67.97l7.99 8.25 -11.08 3c-34.9,9.47 -59.28,41.26 -59.28,77.49l0 104.5c0,5.91 4.73,10.64 10.64,10.64l243.8 0c5.91,0 10.64,-4.73 10.64,-10.64l0 -104.5c0,-36.27 -24.36,-68.05 -59.31,-77.49l-11.1 -3 8.01 -8.26zm-122.4 29.76l104.52 -0.03c32.6,-0.02 59.03,26.43 59.03,59.03l0 93.86 -222.55 0 0 -93.86c0,-32.58 26.42,-59 59,-59zm52.28 -174.19c42.22,0 76.44,34.26 76.44,76.47 0,42.21 -34.24,76.41 -76.44,76.41 -42.21,0 -76.44,-34.2 -76.44,-76.41 0,-42.22 34.21,-76.47 76.44,-76.47z"/>
 </g>
</svg>
