<svg width="18" height="16" viewBox="0 0 18 16" version="1.1" xmlns="http://www.w3.org/2000/svg" xmlns:xlink="http://www.w3.org/1999/xlink" style="fill: #2D2C2C;">
<title>Group</title>
<desc>Created using Figma</desc>
<g id="Canvas" transform="translate(698 302)">
<g id="Group">
<g id="Group">
<g id="Vector">
<use xlink:href="#path0_fill" transform="translate(-695.5 -302)"/>
</g>
</g>
<g id="Group">
<g id="Vector">
<use xlink:href="#path1_fill" transform="translate(-690.2 -294.5)"/>
</g>
</g>
<g id="Group">
<g id="Vector">
<use xlink:href="#path2_fill" transform="translate(-698 -294.5)"/>
</g>
</g>
<g id="Group">
<g id="Group">
<g id="Vector">
<use xlink:href="#path3_fill" transform="translate(-685 -299.692)"/>
</g>
</g>
<g id="Group">
<g id="Vector">
<use xlink:href="#path4_fill" transform="translate(-682.692 -302)"/>
</g>
</g>
</g>
</g>
</g>
<defs>
<path id="path0_fill" d="M 4 9C 1.8 9 7.62939e-07 7 7.62939e-07 4.5C 7.62939e-07 2 1.8 3.8147e-07 4 3.8147e-07C 6.2 3.8147e-07 8 2 8 4.5C 8 7 6.2 9 4 9ZM 4 1C 2.3 1 1 2.6 1 4.5C 1 6.4 2.3 8 4 8C 5.7 8 7 6.4 7 4.5C 7 2.6 5.7 1 4 1Z"/>
<path id="path1_fill" d="M 4.7 8.3C 4.4 8.3 4.2 8.1 4.2 7.8L 4.2 4.4C 4.2 2.5 2.7 1 0.799999 1L 0.5 1C 0.2 1 0 0.8 0 0.5C 0 0.2 0.2 3.8147e-07 0.5 3.8147e-07L 0.9 3.8147e-07C 3.3 3.8147e-07 5.3 2 5.3 4.4L 5.3 7.8C 5.2 8.1 5 8.3 4.7 8.3Z"/>
<path id="path2_fill" d="M 0.5 8.3C 0.2 8.3 -1.90735e-07 8.1 -1.90735e-07 7.8L -1.90735e-07 4.4C -1.90735e-07 2 2 3.8147e-07 4.4 3.8147e-07L 4.8 3.8147e-07C 5.1 3.8147e-07 5.3 0.2 5.3 0.5C 5.3 0.8 5.1 1 4.8 1L 4.4 1C 2.5 1 1 2.5 1 4.4L 1 7.8C 1 8.1 0.8 8.3 0.5 8.3Z"/>
<path id="path3_fill" d="M 4.80769 0.384615L 0.192308 0.384615C 0.0769231 0.384615 0 0.307692 0 0.192308C 0 0.0769231 0.0769231 0 0.192308 0L 4.80769 0C 4.92308 0 5 0.0769231 5 0.192308C 5 0.307692 4.92308 0.384615 4.80769 0.384615Z"/>
<path id="path4_fill" d="M 0.192308 5C 0.0769231 5 0 4.92308 0 4.80769L 0 0.192308C 0 0.0769231 0.0769231 0 0.192308 0C 0.307692 0 0.384615 0.0769231 0.384615 0.192308L 0.384615 4.80769C 0.384615 4.92308 0.307692 5 0.192308 5Z"/>
</defs>
</svg>
